<svg width="30" height="30" viewBox="0 0 30 30" fill="none" xmlns="http://www.w3.org/2000/svg">
<g clip-path="url(#clip0_97_3307)">
<path d="M0.198275 14.5193L7.0163 7.70125C7.26122 7.41526 7.69164 7.38192 7.97763 7.62689C8.26362 7.87181 8.29696 8.30223 8.05198 8.58822C8.02913 8.61488 8.00429 8.63979 7.97763 8.66258L2.32548 14.3216H29.3182C29.6947 14.3216 30 14.6268 30 15.0034C30 15.38 29.6947 15.6852 29.3182 15.6852H2.32548L7.97763 21.3374C8.26362 21.5823 8.29696 22.0127 8.05198 22.2987C7.80701 22.5847 7.37664 22.618 7.09065 22.373C7.06399 22.3502 7.03909 22.3253 7.0163 22.2987L0.198215 15.4806C-0.0660954 15.2148 -0.0660954 14.7853 0.198275 14.5193Z" fill="white" fill-opacity="0.51"/>
</g>
<defs>
<clipPath id="clip0_97_3307">
<rect width="30" height="30" fill="white" transform="matrix(-1 0 0 1 30 0)"/>
</clipPath>
</defs>
</svg>
