<svg width="30" height="30" viewBox="0 0 30 30" fill="none" xmlns="http://www.w3.org/2000/svg">
<g clip-path="url(#clip0_97_3326)">
<path d="M29.8017 15.4807L22.9837 22.2988C22.7388 22.5847 22.3084 22.6181 22.0224 22.3731C21.7364 22.1282 21.703 21.6978 21.948 21.4118C21.9709 21.3851 21.9957 21.3602 22.0224 21.3374L27.6745 15.6784L0.681785 15.6784C0.305268 15.6784 0 15.3732 0 14.9966C0 14.62 0.305268 14.3148 0.681785 14.3148L27.6745 14.3148L22.0224 8.66264C21.7364 8.41773 21.703 7.9873 21.948 7.70131C22.193 7.41532 22.6234 7.38198 22.9093 7.62696C22.936 7.64981 22.9609 7.67465 22.9837 7.70131L29.8018 14.5194C30.0661 14.7852 30.0661 15.2147 29.8017 15.4807Z" fill="white"/>
</g>
<defs>
<clipPath id="clip0_97_3326">
<rect width="30" height="30" fill="white" transform="matrix(1 0 0 -1 0 30)"/>
</clipPath>
</defs>
</svg>
