<svg width="24" height="22" viewBox="0 0 24 22" fill="none" xmlns="http://www.w3.org/2000/svg">
<path d="M15.7986 18.313C15.8377 18.3196 15.8766 18.3228 15.915 18.3228C16.2525 18.3228 16.5504 18.079 16.6077 17.7351L17.3109 13.5163C17.3747 13.1333 17.116 12.771 16.7329 12.7072C16.3498 12.6431 15.9876 12.9021 15.9237 13.2851L15.2206 17.5039C15.1568 17.887 15.4155 18.2493 15.7986 18.313Z" fill="white"/>
<path d="M7.43937 17.7351C7.49669 18.079 7.79454 18.3228 8.13208 18.3228C8.17047 18.3228 8.20938 18.3196 8.24852 18.3131C8.63158 18.2492 8.89033 17.887 8.82649 17.5039L8.12337 13.2851C8.05952 12.9021 7.69732 12.6434 7.31421 12.7072C6.93115 12.771 6.6724 13.1333 6.73624 13.5163L7.43937 17.7351Z" fill="white"/>
<path d="M23.2969 7.03124H20.8223L15.4084 0.263898C15.1659 -0.0392424 14.7234 -0.0885082 14.4202 0.154117C14.1169 0.396695 14.0677 0.839148 14.3104 1.14238L19.0215 7.03124H4.97855L9.68967 1.14238C9.93225 0.839148 9.88308 0.396648 9.57989 0.154117C9.27661 -0.0885082 8.83416 -0.0392893 8.59163 0.263898L3.1777 7.03124H0.703125C0.314812 7.03124 0 7.34605 0 7.73437V10.5469C0 10.9352 0.314812 11.25 0.703125 11.25H1.57903L4.24584 20.5838C4.33205 20.8857 4.60795 21.0937 4.92188 21.0937H19.0781C19.392 21.0937 19.668 20.8857 19.7542 20.5838L22.421 11.25H23.2969C23.6852 11.25 24 10.9352 24 10.5469V7.73437C24 7.34605 23.6852 7.03124 23.2969 7.03124ZM18.5478 19.6875H5.45222L3.04153 11.25H20.9585L18.5478 19.6875ZM22.5938 9.84374C20.1851 9.84374 3.68813 9.84374 1.40625 9.84374V8.43749H22.5938V9.84374Z" fill="white"/>
<path d="M12 18.3226C12.3883 18.3226 12.7031 18.0078 12.7031 17.6195V13.4007C12.7031 13.0124 12.3883 12.6976 12 12.6976C11.6117 12.6976 11.2969 13.0124 11.2969 13.4007V17.6195C11.2969 18.0078 11.6117 18.3226 12 18.3226Z" fill="white"/>
</svg>
