<svg width="95" height="62" viewBox="0 0 95 62" fill="none" xmlns="http://www.w3.org/2000/svg">
<path d="M12.2407 31.0006C12.2407 24.8693 14.0588 18.8756 17.4652 13.7776C20.8716 8.67959 25.7133 4.70616 31.3779 2.3598C37.0425 0.0134322 43.2757 -0.600484 49.2892 0.595682C55.3028 1.79185 60.8266 4.74437 65.1621 9.07989C69.4976 13.4154 72.4501 18.9392 73.6463 24.9527C74.8425 30.9663 74.2285 37.1994 71.8822 42.8641C69.5358 48.5287 65.5624 53.3703 60.4644 56.7767C55.3663 60.1831 49.3727 62.0013 43.2413 62.0013C39.1701 62.002 35.1386 61.2006 31.3771 59.6429C27.6156 58.0852 24.1979 55.8017 21.319 52.9229C18.4402 50.0441 16.1568 46.6264 14.5991 42.8649C13.0414 39.1034 12.24 35.0719 12.2407 31.0006Z" fill="#FF0000"/>
<mask id="mask0_240_6521" style="mask-type:luminance" maskUnits="userSpaceOnUse" x="12" y="0" width="63" height="63">
<path d="M12.24 31.0006C12.24 24.8693 14.0581 18.8756 17.4645 13.7776C20.8709 8.67959 25.7125 4.70616 31.3772 2.3598C37.0418 0.0134322 43.275 -0.600484 49.2885 0.595682C55.302 1.79185 60.8258 4.74437 65.1613 9.07989C69.4969 13.4154 72.4494 18.9392 73.6456 24.9527C74.8417 30.9663 74.2278 37.1994 71.8814 42.8641C69.5351 48.5287 65.5616 53.3703 60.4636 56.7767C55.3656 60.1831 49.3719 62.0013 43.2406 62.0013C39.1693 62.002 35.1378 61.2006 31.3764 59.6429C27.6149 58.0852 24.1971 55.8017 21.3183 52.9229C18.4395 50.0441 16.156 46.6264 14.5984 42.8649C13.0407 39.1034 12.2393 35.0719 12.24 31.0006Z" fill="white"/>
</mask>
<g mask="url(#mask0_240_6521)">
<path d="M18.2203 61.939C15.2822 61.7625 12.3856 61.4199 9.46828 61.1499H9.43195V61.4614C11.0515 61.6379 12.6867 61.7832 14.3011 61.9338C20.45 62.4849 26.6283 62.6341 32.7966 62.3802C38.1466 62.2281 43.4841 61.781 48.7849 61.0409L56.1509 61.316V61.1084C54.123 61.0253 52.0933 60.9371 50.0619 60.8437L50.311 60.8021C52.2629 60.4855 54.2199 60.1117 56.1509 59.7068V59.4161C53.6956 59.982 51.126 60.4128 48.5876 60.7762C43.3966 60.5374 38.2056 60.2882 32.9731 60.0702C27.4949 59.8383 22.0166 59.6065 16.5384 59.3746C14.1713 59.276 11.8094 59.2396 9.44233 59.2085V59.5044C10.8854 59.5044 12.3233 59.5044 13.7664 59.5719C17.3015 59.6705 20.8314 59.8729 24.3612 60.0287C31.9574 60.3574 39.5518 60.6741 47.1445 60.9786L46.4334 61.0721C37.0774 62.2497 27.631 62.54 18.2203 61.939Z" fill="white"/>
<path d="M46.9988 54.4328C50.8245 54.7235 54.6451 55.009 58.4605 55.3152C60.6978 55.4969 63.2777 55.4035 65.7279 55.6111V55.2893C63.8903 55.1543 62.0007 55.1699 60.2981 55.0972C57.1264 54.9622 53.9443 54.7131 50.7674 54.438C55.7508 54.6041 60.7497 54.7287 65.7279 54.5937V54.3445C62.3693 54.4328 58.9796 54.4016 55.6366 54.3186C59.0004 54.2303 62.3849 54.1005 65.7279 53.9656V53.7164C60.7601 53.9137 55.7923 54.1005 50.8245 54.168L45.348 53.9915L43.0121 53.7995C37.302 53.3582 31.6178 52.8132 25.9233 52.3096C23.6289 52.1072 21.3033 51.9722 18.9985 51.7594V52.1124C20.9244 52.2837 22.871 52.3979 24.7865 52.564C29.2767 52.9533 33.7565 53.3738 38.2467 53.7579C31.8099 53.5503 25.3471 53.3011 18.9985 52.5796V53.0052C28.171 53.841 37.5044 54.4224 46.7444 54.4535L46.9988 54.4328Z" fill="white"/>
<path d="M25.7157 56.478C34.9763 57.5368 44.2863 58.1069 53.6069 58.1859C57.6455 58.1859 61.6893 58.0768 65.7123 57.7862V57.6252C58.855 58.0042 52.0029 58.1028 45.0937 57.8536C40.1311 57.6771 35.2308 57.2982 30.2941 56.8154C29.0483 56.6909 27.7973 56.5715 26.5514 56.4365C31.976 56.6701 37.4214 56.7376 42.8356 56.9556C48.6236 57.1684 54.4271 57.319 60.2202 57.1165C62.0423 57.0542 63.8851 56.9919 65.7123 56.8881V56.369C61.1304 56.5213 56.5467 56.5472 51.9614 56.4469C43.7959 56.2756 35.4696 55.8914 27.408 54.9363C24.5832 54.6121 21.7765 54.1461 18.9985 53.5399V53.7579C23.3122 54.6368 27.6784 55.2351 32.0695 55.5488C34.7636 55.7824 37.4785 55.9745 40.1986 56.1302C36.3832 55.9485 32.5834 55.6734 28.7784 55.3516C25.5392 55.0816 22.2844 54.8325 19.0193 54.7131V55.0453C25.5392 55.2581 32.0279 56.0835 38.5271 56.4261L40.209 56.5092C34.1407 56.3171 28.0413 56.2392 21.9937 55.8499C21.1664 55.7343 20.3322 55.6754 19.4969 55.6734L19.0193 55.6371V55.9641C20.9452 56.125 22.871 56.2496 24.8073 56.3431L25.7157 56.478Z" fill="white"/>
<path d="M52.7971 56.7947L56.9967 56.8518C52.6777 56.9193 48.3485 56.8051 44.0192 56.6545C46.9521 56.7272 49.8798 56.7532 52.7971 56.7947Z" fill="white"/>
<path d="M63.2836 58.461C63.3407 58.461 63.3148 58.3987 63.2836 58.4039C53.9398 59.3071 44.7622 59.0683 35.3976 58.487C31.3969 58.2993 27.4105 57.8798 23.4583 57.2307C22.581 57.0698 21.7193 56.8777 20.8628 56.6649C20.3437 56.5299 19.7883 56.3742 19.264 56.2133L19.0356 56.1458V56.2912C24.7457 58.1392 31.3902 58.3676 37.583 58.7465C46.1437 59.34 54.7382 59.2446 63.2836 58.461Z" fill="white"/>
</g>
<path d="M29.6463 14.675C29.2489 14.1582 28.9947 13.5459 28.9092 12.8997C28.4212 13.4188 27.9021 14.0261 27.3519 14.675C16.9699 14.7736 8.96016 16.2323 5.98572 20.3072C8.90825 17.4729 17.4059 16.8863 25.1924 17.4418C19.093 25.7474 11.8308 39.4049 12.76 48.8681C14.0318 41.0712 24.8031 25.0674 31.8109 18.1737C34.1465 18.5016 36.4391 19.0848 38.6475 19.9127C39.1043 18.5267 40.4799 16.85 44.5081 15.3758C39.2808 14.9916 34.2507 14.7165 29.6463 14.675Z" fill="black"/>
<path d="M39.9862 36.1345C38.3095 36.0619 36.5031 36.6952 34.9094 37.1727C32.2681 38.5372 29.4528 39.5344 26.5415 40.1368C25.6902 39.5139 24.1381 38.865 22.9078 37.8787C24.0395 34.5928 26.9983 28.8152 32.3139 25.1452C36.4148 27.45 40.2406 29.7496 39.9862 36.1345ZM34.4786 34.1464C35.1067 33.918 35.7504 34.0581 36.5861 33.9855C35.7711 30.8709 34.5097 30.5231 32.3762 29.2149C29.2305 31.3433 28.0988 33.6948 27.1385 36.2591C30.3829 36.2643 32.8071 34.7849 34.4786 34.1464Z" fill="black"/>
<path d="M76.8162 33.8817C75.1395 33.809 73.333 34.4423 71.7394 34.9199C69.1023 36.2893 66.2905 37.2918 63.3819 37.8995C62.5357 37.2818 60.9836 36.6329 59.7482 35.6414C60.8798 32.3555 63.8387 26.5779 69.1543 22.9079C73.2603 25.1971 77.0861 27.5175 76.8162 33.8817ZM71.3085 31.8935C71.9366 31.6651 72.5803 31.8053 73.4213 31.7326C72.6011 28.618 71.3137 28.2702 69.2062 26.9621C66.0604 29.0904 64.9288 31.4419 63.9684 34.0062C67.2284 34.0114 69.6526 32.5061 71.3241 31.8935H71.3085Z" fill="black"/>
<path d="M65.6923 19.4507C65.2424 19.4326 64.792 19.4745 64.3531 19.5753C63.6269 19.8113 62.8763 19.9646 62.1157 20.0321C61.9133 19.8867 61.5343 19.7258 61.254 19.513C61.9219 18.4264 62.8976 17.5628 64.0572 17.0317C65.0383 17.5715 65.9519 18.1218 65.6923 19.4507Z" fill="black"/>
<path d="M47.705 32.6462C48.5044 31.0889 52.2627 27.3618 56.9657 24.7507H51.6086C50.6068 25.2231 46.3553 29.08 44.3776 30.9072V30.8813C46.3293 26.0724 48.7514 21.4681 51.6086 17.1355H46.999C46.999 17.1355 37.7798 34.8368 37.1673 44.871C39.0049 40.6248 41.1176 35.9373 43.5937 33.6844C47.5648 34.4319 50.9805 40.1835 52.5326 46.0649C52.9064 44.9177 53.5189 43.1061 55.8237 42.2184C54.7596 39.3426 51.6554 32.9784 47.705 32.6462Z" fill="black"/>
<path d="M61.5704 22.1033C56.8602 26.2825 53.7543 31.9731 52.7873 38.1954C53.5296 37.3752 56.748 35.5168 58.2222 35.9321C57.7602 32.07 60.0235 26.4429 61.5704 22.1033Z" fill="black"/>
<path d="M30.5593 13.4447C30.1067 13.1097 29.727 12.6861 29.4432 12.1998C29.1594 11.7134 28.9775 11.1744 28.9085 10.6156C28.1766 11.4514 27.3876 12.448 26.557 13.5693C16.5332 14.0884 8.86091 15.9156 6.00067 20.3176C8.80381 17.2549 16.8706 16.3101 24.4702 16.5697C18.5421 25.4722 11.8976 39.218 12.7905 48.868C14.0052 40.8791 24.0238 24.7974 31.0213 17.094C34.0891 17.5041 36.7314 18.101 38.3562 18.8018C38.7974 17.3016 40.1418 15.4536 44.1233 13.7406C39.3788 13.5018 34.8055 13.3772 30.5593 13.4447Z" fill="white" stroke="white" stroke-width="0.2" stroke-miterlimit="10"/>
<path d="M39.9862 35.3039C38.3095 35.2261 36.5031 35.9009 34.9094 36.4148C32.2849 37.8593 29.467 38.9203 26.5415 39.5658C25.6902 38.9065 24.1381 38.2161 22.9078 37.1675C24.0395 33.6688 26.9983 27.5226 32.3139 23.6242C36.4148 26.0899 40.2406 28.5557 39.9862 35.3039ZM34.4786 33.2275C35.1067 32.9836 35.7504 33.1341 36.5861 33.0562C35.7711 29.7548 34.5097 29.3706 32.3762 27.9846C29.2305 30.2323 28.0988 32.7085 27.1385 35.4597C30.3829 35.4649 32.8071 33.8609 34.4786 33.2275Z" fill="white" stroke="white" stroke-width="0.2" stroke-miterlimit="10"/>
<path d="M76.8168 32.9317C75.1401 32.8538 73.3336 33.5287 71.74 34.0374C69.1141 35.4841 66.2944 36.547 63.3669 37.1935C62.5208 36.5342 60.9687 35.8438 59.7332 34.7953C60.8649 31.2965 63.8237 25.1504 69.1393 21.2468C73.261 23.6917 77.0867 26.1367 76.8168 32.9317ZM71.3091 30.819C71.9373 30.5698 72.5809 30.7203 73.4219 30.6477C72.6017 27.3462 71.3143 26.9621 69.2068 25.5709C66.061 27.8341 64.9294 30.3362 63.9691 33.0615C67.229 33.0667 69.6532 31.4678 71.3247 30.819H71.3091Z" fill="white" stroke="white" stroke-width="0.2" stroke-miterlimit="10"/>
<path d="M65.246 18.4696C64.8397 18.4893 64.4397 18.577 64.0625 18.7291C63.452 19.0652 62.7964 19.3117 62.1158 19.4611C61.9186 19.3105 61.5552 19.1444 61.2697 18.9056C61.6737 17.6611 62.4357 16.5633 63.4603 15.7495C64.4154 16.3205 65.3031 16.8915 65.246 18.4696Z" fill="white" stroke="white" stroke-width="0.2" stroke-miterlimit="10"/>
<path d="M47.705 31.6132C48.5044 29.9469 52.2627 25.9965 56.9657 23.2193H51.6086C50.6068 23.7384 46.3553 27.8238 44.3776 29.7652C46.3158 24.668 48.7372 19.7679 51.6086 15.1318H46.999C46.999 15.1318 37.7798 33.9439 37.1673 44.6478C39.0049 40.1057 41.1176 35.1171 43.5937 32.7085C47.5648 33.5027 50.9805 39.6229 52.5326 45.878C52.9064 44.6582 53.5189 42.7271 55.8237 41.7875C54.7596 38.7404 51.6554 31.9662 47.705 31.6132Z" fill="white" stroke="white" stroke-width="0.2" stroke-miterlimit="10"/>
<path d="M61.2694 20.3071C55.2115 26.0795 53.3946 33.2846 52.7873 37.5412C53.5088 36.664 56.6805 34.6758 58.1548 35.1222C57.6357 30.9642 59.8003 24.9479 61.2694 20.3071Z" fill="white" stroke="white" stroke-width="0.2" stroke-miterlimit="10"/>
<path d="M92.1974 43.1787C92.3895 43.0852 92.5971 43.0904 92.5348 43.1787C92.9086 42.9243 92.9553 43.0229 92.9397 42.8257C93.163 42.6336 93.49 42.6388 93.2252 42.8257L93.9312 42.4104L93.4692 42.5661C93.5315 42.3689 94.2011 42.3118 94.2686 42.0834L93.4692 42.4364V42.3689C93.2662 42.5011 93.0412 42.5961 92.8048 42.6492C92.8048 42.618 92.8048 42.5817 92.9294 42.5194C91.9431 42.8984 92.7684 42.888 91.969 43.2565C92.041 43.2197 92.1179 43.1934 92.1974 43.1787Z" fill="white"/>
<path d="M91.2162 43.132L90.9411 43.4487L90.339 43.6096C90.339 43.6771 89.9496 43.8795 90.2559 43.838C90.3348 43.7901 90.4183 43.7501 90.5051 43.7186C90.5051 43.8847 89.7524 44.0664 89.986 44.1494C90.2699 44.0626 90.5343 43.9215 90.7646 43.7342C91.0759 43.6214 91.3976 43.5396 91.725 43.4902C91.8443 43.4175 91.8288 43.3241 91.9793 43.2462L91.8755 43.2929L91.7665 43.0905C91.646 43.1725 91.5126 43.2339 91.372 43.2722L91.9585 42.7531C91.6679 42.6389 91.0449 43.0074 90.749 43.023C91.1436 43.0905 90.5206 43.2254 91.2162 43.132Z" fill="white"/>
<path d="M38.1484 51.396C38.1074 51.3915 38.0659 51.3957 38.0266 51.4082C37.9872 51.4207 37.9509 51.4413 37.92 51.4687L39.685 51.5466C39.6331 51.4895 39.1243 51.3908 39.467 51.3701C39.2421 51.307 39.0025 51.3217 38.7869 51.4116L38.9167 51.3285C38.5066 51.422 38.2419 51.1832 38.5066 51.1261H38.4703L37.3283 51.5154C37.7384 51.5725 37.6553 51.396 38.1484 51.396Z" fill="white"/>
<path d="M2.48175 45.686C2.71015 45.7275 2.7413 45.686 2.72573 45.686C2.64459 45.6782 2.56289 45.6782 2.48175 45.686Z" fill="#231F20"/>
<path d="M37.0589 51.6141L36.7007 51.7335C36.8246 51.7088 36.9449 51.6686 37.0589 51.6141Z" fill="white"/>
<path d="M44.3263 48.9615L43.5528 49.0809C43.6567 49.0186 43.2829 49.029 43.449 48.9615C43.3867 48.9615 43.1116 48.9615 43.1843 49.0238H43.3452C42.9351 49.1951 43.1791 49.2781 42.4991 49.3975C42.6349 49.4399 42.7779 49.4548 42.9196 49.4414C43.0613 49.428 43.1989 49.3867 43.3244 49.3197H43.5321L44.1758 49.0757L44.3263 48.9615Z" fill="white"/>
<path d="M13.3723 47.0512L13.3256 47.1031C13.3723 47.0824 13.5332 47.0824 13.3723 47.0512Z" fill="white"/>
<path d="M37.1933 51.4999C37.1933 51.5362 37.1362 51.5726 37.0583 51.6141L37.3282 51.5258L37.1933 51.4999Z" fill="white"/>
<path d="M37.8112 51.1314H38.4705L38.7196 51.0483C38.4653 51.0795 38.1694 51.0899 37.8112 51.1314Z" fill="white"/>
<path d="M30.0509 51.7179C28.6804 51.6193 30.4091 51.5362 29.7861 51.422C29.5283 51.4328 29.2715 51.4623 29.0179 51.5102C30.1132 51.5102 28.8414 51.8373 29.9419 51.8892C29.7654 52.0605 29.1321 52.0138 28.7635 51.9255C28.3586 51.7023 29.1424 51.8321 29.2826 51.666C28.8414 51.666 28.914 51.666 28.7168 51.7698C28.0316 51.6608 27.2685 51.8373 26.8844 51.5466C26.6186 51.5355 26.3535 51.5797 26.1057 51.6764C26.0227 51.8632 26.8376 51.8632 27.0038 52.0345C26.9674 52.0345 26.8947 51.9722 26.9207 51.9515L27.3516 52.0397C26.9467 51.9255 27.4242 51.8529 27.6474 51.8632C27.8707 51.8736 28.125 51.8996 28.0783 51.9463H27.8291C28.1354 52.0449 28.5299 51.8788 28.8673 52.019C28.8673 52.0605 28.7531 52.0709 28.7324 52.0968C29.1603 52.0334 29.5923 52.0022 30.0249 52.0034L29.6875 52.1643C30.3941 52.0552 31.1162 52.1066 31.8002 52.3148C31.7276 52.2785 31.5926 52.2422 31.6808 52.211C32.0857 52.211 32.3764 52.3564 32.1999 52.4394C32.6048 52.3148 33.6846 52.6938 34.24 52.5277C35.0809 52.2629 35.9271 52.0086 36.7628 51.7179C36.6653 51.738 36.5664 51.7501 36.4669 51.7542C36.2541 51.5725 36.1347 51.5829 36.5292 51.448C36.1451 51.5154 36.2801 51.6608 35.7039 51.6296C35.9375 51.5622 36.0049 51.3753 35.4547 51.3182C34.0687 51.396 33.1188 51.8009 31.821 51.9307C31.7847 51.8009 30.7828 51.749 30.2637 51.6712C30.5437 51.5748 30.841 51.5394 31.1358 51.5673L30.1858 51.4583L30.0509 51.7179Z" fill="white"/>
<path d="M33.2956 51.5622L33.1918 51.531C33.2242 51.5475 33.2594 51.558 33.2956 51.5622Z" fill="white"/>
<path d="M36.8874 51.1936L37.1158 51.121H36.9393C36.8822 51.1573 36.8459 51.1729 36.8874 51.1936Z" fill="white"/>
<path d="M37.152 51.4324L37.1053 51.4843H37.1936C37.1936 51.4843 37.1988 51.448 37.152 51.4324Z" fill="white"/>
<path d="M24.9737 49.9893H24.844C24.9063 50.0101 24.953 50.0049 24.9737 49.9893Z" fill="white"/>
<path d="M28.54 51.3493C29.0176 51.3857 28.6179 51.1676 29.2875 51.2351L29.0955 51.1988C29.7323 51.2088 30.3682 51.2521 31.0006 51.3286C30.9279 51.4012 31.338 51.4531 31.2601 51.5673C31.5952 51.6027 31.934 51.5709 32.2568 51.4739C32.4956 51.5362 32.8745 51.4739 33.1808 51.531C33.0562 51.448 33.6376 51.3234 32.8797 51.3493C32.942 51.3493 32.8797 51.3493 32.9627 51.3493C32.4904 51.2092 32.2827 51.3493 31.8674 51.3493C31.6235 51.2611 32.2827 51.2715 32.0491 51.2247C31.53 51.2247 30.4295 50.9963 30.4399 51.2611C30.2559 51.2761 30.0723 51.2266 29.9208 51.1209C29.2927 51.3493 27.7147 50.7783 27.6783 51.1209C27.9787 51.1503 28.2812 51.1503 28.5815 51.1209L28.54 51.3493Z" fill="white"/>
<path d="M42.0363 52.4862L41.8286 52.7198C40.6866 52.7198 40.2713 52.6627 39.2851 52.6263C39.2072 52.59 39.3318 52.5744 39.3889 52.5692C38.6371 52.5226 37.8834 52.5139 37.1308 52.5433C36.9076 52.5433 36.3314 52.4239 36.5546 52.3668C36.4356 52.38 36.3154 52.38 36.1964 52.3668C36.1653 52.2785 36.4767 52.3668 36.4871 52.2889C36.3885 52.2889 36.3521 52.2578 36.3262 52.2889C36.4975 52.2266 36.1705 51.993 36.9439 52.0397C37.2346 52.2578 36.4248 52.0397 36.5702 52.2629C36.8297 52.2629 36.8038 52.1903 36.8245 52.1643C37.1516 52.1903 37.1412 52.2474 37.1204 52.2941C37.2502 52.2318 37.6395 52.3512 37.8368 52.2578C38.4701 52.2578 37.7901 52.4187 38.2105 52.4394L38.4597 52.2266L39.1449 52.2993C40.152 52.2629 39.0203 51.91 40.1831 51.8269C40.0274 51.9411 40.479 52.1539 41.0085 52.2162C40.5714 52.2731 40.1298 52.287 39.69 52.2578C40.261 52.455 38.8905 52.2578 39.1709 52.455C39.548 52.3818 39.9357 52.3818 40.3129 52.455H40.1883C40.5828 52.4965 40.8891 52.2733 41.4341 52.3771C41.7093 52.3771 41.6522 52.4394 41.6054 52.4914C41.8442 52.4758 42.0363 52.4342 42.0363 52.4862ZM41.4445 52.5173L41.0811 52.481C41.2024 52.5247 41.3327 52.5372 41.4601 52.5173H41.4445Z" fill="white"/>
<path d="M86.5083 44.7516H86.6173C86.5813 44.7451 86.5443 44.7451 86.5083 44.7516Z" fill="white"/>
<path d="M59.8158 48.6604L60.1117 48.5878C60.0102 48.5984 59.9107 48.6229 59.8158 48.6604Z" fill="white"/>
<path d="M84.1362 45.4212H84.1258L84.0842 45.4472L84.1362 45.4212Z" fill="white"/>
<path d="M69.1231 48.1828C69.18 48.1898 69.2376 48.1898 69.2944 48.1828C69.2944 48.1828 69.2218 48.1828 69.1231 48.1828Z" fill="white"/>
<path d="M59.7589 48.676L59.7796 48.6812L59.816 48.6604L59.7589 48.676Z" fill="white"/>
<path d="M53.1507 49.1224H53.0209C53.064 49.1279 53.1076 49.1279 53.1507 49.1224Z" fill="white"/>
<path d="M46.2933 49.4287L46.013 49.4599C46.1074 49.4623 46.2017 49.4518 46.2933 49.4287Z" fill="white"/>
<path d="M52.7239 49.626L52.6833 49.6564C52.7188 49.6463 52.734 49.6361 52.7239 49.626Z" fill="white"/>
<path d="M88.397 44.8502L88.3817 44.8553V44.8858L88.397 44.8502Z" fill="white"/>
<path d="M88.9424 44.3259L89.1656 44.2325C89.0884 44.2567 89.0137 44.288 88.9424 44.3259Z" fill="white"/>
<path d="M73.1827 47.9181C73.2606 47.9181 73.4423 47.9181 73.3644 47.996C73.4942 47.9233 73.463 47.8143 73.1827 47.9181Z" fill="white"/>
<path d="M87.5155 46.6047C87.5518 46.5599 87.5936 46.5197 87.64 46.4854C87.5518 46.5476 87.4687 46.5996 87.5155 46.6047Z" fill="white"/>
<path d="M87.6395 46.4854L87.7744 46.392C87.7255 46.417 87.6801 46.4484 87.6395 46.4854Z" fill="white"/>
<path d="M71.6255 50.0516C71.5967 50.0428 71.566 50.0428 71.5372 50.0516C71.5372 50.0672 71.5684 50.0672 71.6255 50.0516Z" fill="white"/>
<path d="M89.3688 44.2013C89.3688 44.139 90.355 43.6822 89.5037 43.9469C89.5037 43.7808 90.0228 43.6874 90.2305 43.568C90.054 43.568 90.2772 43.4382 90.2045 43.4019C90.0784 43.4902 89.9403 43.5602 89.7944 43.6095C89.6854 43.568 89.945 43.4226 90.1734 43.3707C89.8723 43.3707 90.4641 43.1268 90.0644 43.1994C89.4103 43.4439 88.7949 43.7813 88.2371 44.2013C88.6747 43.9989 89.1299 43.8373 89.5972 43.7185L89.483 43.9106C89.0908 43.9723 88.7085 44.0858 88.3461 44.248L89.3272 43.9988C89.81 43.9573 89.5245 44.0871 89.1767 44.2324C89.2373 44.207 89.3032 44.1963 89.3688 44.2013Z" fill="white"/>
<path d="M46.3349 52.3356L46.2466 52.3875C46.3193 52.3668 46.3401 52.346 46.3349 52.3356Z" fill="white"/>
<path d="M49.0751 49.2417C49.0192 49.2315 49.0395 49.2366 49.0751 49.2417V49.2417Z" fill="white"/>
<path d="M59.1673 51.3961L59.0739 51.3546C59.0739 51.3546 59.0635 51.3649 59.1673 51.3961Z" fill="white"/>
<path d="M72.5909 47.3627C72.5102 47.3717 72.4303 47.3873 72.3521 47.4094L72.5909 47.3627Z" fill="white"/>
<path d="M62.2709 50.3994L62.2086 50.4202L62.2501 50.4254L62.2709 50.3994Z" fill="white"/>
<path d="M63.3716 50.3994C63.3446 50.4145 63.32 50.4338 63.2989 50.4565C63.6831 50.3579 64.3994 50.3475 64.4669 50.1866C64.3371 50.1866 63.6467 50.1866 63.7558 50.0828C63.491 50.1502 63.0809 50.0828 62.9356 50.1191C63.3872 50.1606 62.9979 50.2437 62.702 50.3267C62.4269 50.3267 62.7435 50.197 62.5047 50.1918L61.8766 50.2644H62.4269L62.2763 50.4254H62.3282C63.2522 50.2229 62.4269 50.5863 63.3716 50.3994Z" fill="white"/>
<path d="M63.3198 50.4565C63.27 50.4674 63.2213 50.483 63.1745 50.5032C63.2266 50.5029 63.2773 50.4866 63.3198 50.4565Z" fill="white"/>
<path d="M39.1867 51.1002C39.1867 51.1418 39.7422 51.256 39.737 51.1418L39.249 51.0847L39.1867 51.1002Z" fill="white"/>
<path d="M77.2685 47.9545L77.0868 47.9908H77.0557C77.1282 47.9912 77.2002 47.9789 77.2685 47.9545Z" fill="white"/>
<path d="M63.9167 50.0153C63.8591 50.0269 63.8044 50.0499 63.7557 50.0827C63.8132 50.0708 63.8679 50.0479 63.9167 50.0153Z" fill="white"/>
<path d="M77.3356 48.2088C77.4187 48.2088 77.5433 48.2503 77.564 48.2918C77.7028 48.2464 77.8382 48.1908 77.9689 48.1257C77.763 48.1844 77.5497 48.2123 77.3356 48.2088Z" fill="white"/>
<path d="M38.865 51.0379H38.7196H38.7975L38.4238 50.986H38.2732C38.2903 50.9898 38.308 50.9898 38.3251 50.986H38.2057C37.9047 51.0898 37.1675 51.1365 36.9391 51.1936C36.656 51.2216 36.3709 51.2216 36.0878 51.1936C36.2903 51.1936 36.5602 51.1936 36.4823 51.1313C36.074 50.9484 35.6216 50.8871 35.1794 50.9548H35.5895L34.6447 51.1417C34.3281 51.0171 35.1171 51.0482 35.2521 50.9704C34.5201 51.0431 33.9439 50.6693 33.5961 50.8614C33.5546 50.7316 33.4923 50.5084 33.0199 50.4876C33.347 50.6589 32.7292 50.5551 32.994 50.7368C32.8279 50.7991 32.4749 50.6485 32.4385 50.7368L32.4853 50.6849C32.2511 50.6047 32.0033 50.5722 31.7563 50.5891C31.5094 50.6061 31.2684 50.6721 31.0473 50.7835C30.0714 50.7524 29.6354 50.6226 28.8464 50.5655C28.8005 50.4634 28.7282 50.3754 28.637 50.3106C28.5457 50.2458 28.4388 50.2065 28.3273 50.1969C28.1663 50.2956 27.45 50.2696 27.3617 50.4149C27.9172 50.5343 27.8341 50.3371 28.1767 50.3371C28.4415 50.524 28.1767 50.498 28.5609 50.6278C28.2598 50.5395 27.1489 50.5603 26.8271 50.3734H26.9465C26.4274 50.2229 26.3547 49.8543 25.4255 49.9581L24.9843 49.9945C24.9843 49.9945 24.9843 49.9685 25.0258 49.9529C24.325 49.8491 24.5378 49.709 23.7436 49.7401C23.8059 49.7401 23.7436 49.7401 23.8319 49.7401C23.4231 49.6613 23.0047 49.6456 22.5912 49.6934C22.4043 49.5429 22.6535 49.5792 22.7937 49.5065C22.0839 49.3881 21.3595 49.3881 20.6498 49.5065L20.1307 49.3612C20.437 49.3612 20.8211 49.2781 20.738 49.1899C20.5317 49.211 20.3234 49.2005 20.1203 49.1587C20.2617 49.0751 20.4136 49.0106 20.5719 48.9667C19.7881 48.7175 20.3487 49.221 19.8244 48.894C19.5701 48.8525 19.4039 48.9459 19.3624 49.0341L18.9419 48.8005C18.8693 48.9147 18.3035 48.8317 17.9297 48.8005C17.8778 48.8473 18.21 48.9822 18.3554 48.9563C18.3138 49.0497 17.9089 49.029 17.6598 48.9563C17.6079 48.6915 15.9935 48.7071 16.3464 48.4631C15.194 48.3437 13.6004 48.0686 12.8321 48.0219C12.5985 47.9077 12.1002 47.7987 12.4221 47.7416C11.5136 47.5599 10.9893 47.7416 10.1017 47.4561C10.0342 47.4094 10.5118 47.5443 10.4962 47.4561C9.88885 47.4561 9.45799 47.1187 8.52361 46.9785C8.56304 46.9926 8.60525 46.9971 8.64675 46.9917C8.68826 46.9862 8.7279 46.9711 8.7624 46.9474C8.7624 46.9941 8.36789 46.9474 8.12391 46.9474C7.99413 46.8955 8.30559 46.9474 8.23811 46.9058C6.50951 46.3867 5.09237 46.3867 3.35338 45.9247C3.87248 46.0597 4.08012 45.9247 4.10089 45.878L3.62332 45.7586C3.32263 45.7555 3.02254 45.7313 2.72527 45.6859C2.69413 45.6444 2.55397 45.5717 2.72527 45.5717C1.81685 45.1461 1.16797 45.4679 0 45.0526L1.51058 45.1201L1.19393 44.9073H1.85838C1.51058 44.7152 1.13164 44.8346 1.12126 44.6997C1.2095 44.6997 1.39119 44.7516 1.41714 44.6997C1.07454 44.5491 1.02263 44.6374 0.747503 44.5855C1.52096 44.5335 2.90696 44.9125 3.67003 45.0475C3.79462 45.0475 3.55064 45.0838 3.52469 45.1046C3.80825 45.2068 4.09775 45.2917 4.39158 45.3589C4.65632 45.307 4.23066 45.2291 4.04379 45.1668C4.0905 45.0838 4.18394 45.1149 4.40196 45.1668C4.40196 45.307 5.54917 45.5095 5.78277 45.7275C6.9196 45.9611 5.67895 45.3589 6.76906 45.6808L7.06495 45.904C7.81934 45.9424 8.56844 46.0519 9.30227 46.231H9.15173C9.03233 46.2673 9.19325 46.34 9.26074 46.3919C9.77984 46.5736 10.3301 46.5061 10.6364 46.7241C11.2956 46.7241 12.365 46.8072 13.1021 46.8695C13.2578 47.0979 12.1314 46.8435 11.8095 46.9006L12.448 46.9837C12.1706 46.9114 11.8793 46.9114 11.6019 46.9837C12.0521 47.0659 12.5097 47.1007 12.9671 47.0875C12.9152 47.129 12.9671 47.1758 13.2318 47.2277L13.3305 47.1135C13.3305 47.1135 13.3305 47.1135 13.4343 47.1654L14.4206 47.2744C14.2233 47.181 14.2337 47.0668 13.9845 47.02C14.0624 47.1083 13.8444 47.0823 13.5952 47.02C13.8288 46.9837 13.3616 46.9058 13.3824 46.8384C13.8642 46.9403 14.3511 47.0166 14.8411 47.0668L14.9241 47.2017C15.4017 47.3211 15.9208 47.3471 16.2374 47.4405L16.1232 47.4872C16.6793 47.5686 17.2292 47.6883 17.7688 47.8454C18.2879 47.7987 18.9731 47.7935 19.4143 47.7208C19.6635 47.6066 20.8989 48.1465 21.4907 48.0167C21.2853 48.059 21.0771 48.0868 20.8678 48.0998C21.2519 48.1828 21.5842 48.0375 21.6828 48.214C20.8211 48.0323 21.7139 48.3489 21.3142 48.3334C21.6566 48.3948 22.0051 48.4157 22.3524 48.3957C21.6932 48.3022 22.6172 48.2088 21.9423 48.1828C22.5625 48.1264 23.1877 48.1667 23.7955 48.3022C23.7955 48.3697 23.8526 48.4112 24.081 48.4683L24.2783 48.3957C24.5638 48.4476 23.7021 48.4372 24.2783 48.5514C24.896 48.4579 26.064 48.8732 26.3547 48.5877C26.7959 48.7642 25.4722 48.5877 26.1419 48.8473C25.7266 48.9147 25.1919 48.7123 25.0414 48.8473C25.4359 48.8473 25.1659 49.003 25.4203 49.0341L25.8667 48.9874H25.7733C26.7268 48.9982 27.6786 49.0692 28.6232 49.2003C29.391 49.0551 30.1738 49.0046 30.9539 49.0497C30.6632 49.1224 31.7377 49.2106 31.1252 49.33C31.4126 49.4403 31.7307 49.4403 32.0181 49.33C31.8623 49.3061 31.708 49.2732 31.5561 49.2314C31.8714 49.1824 32.1937 49.2018 32.5008 49.2885C32.4022 49.2885 32.4385 49.2885 32.4178 49.3196C32.8746 49.4131 32.6462 49.2522 32.9836 49.2418C33.077 49.3716 33.7207 49.33 34.0218 49.4183L34.4786 49.2781C34.2294 49.3716 34.8991 49.3508 34.9665 49.4546C35.3251 49.3405 35.7019 49.2947 36.0774 49.3196C35.875 49.3664 36.5187 49.4287 36.5187 49.5429C37.344 49.6986 37.9098 49.3145 38.6937 49.5117C38.6937 49.5117 38.5016 49.6052 38.73 49.6415C38.9584 49.6778 39.2491 49.6415 39.4256 49.6415C39.5191 49.6415 39.5813 49.6415 39.5865 49.6052C39.9624 49.4636 40.355 49.3711 40.7545 49.33C40.7078 49.2054 40.1575 49.2314 39.9188 49.2625L39.7059 49.3819C39.5191 49.1795 39.1142 49.3819 38.9688 49.3196C39.3685 49.1068 40.495 49.2106 41.175 49.0964C40.5025 48.8923 39.8009 48.8011 39.0986 48.8265L39.4412 48.9199H39.0311L39.4204 49.0705C39.0311 49.0341 38.6989 49.0705 38.3459 49.029C38.756 49.029 38.9117 49.2314 38.6781 49.1899C38.2265 49.0393 38.2005 49.2522 37.8476 49.221C38.0448 49.221 38.294 49.2574 38.1279 49.3248C37.4478 49.1328 37.2558 49.2262 36.6381 49.0238C36.7055 49.2418 35.8542 48.9978 35.7504 49.1691L36.0411 49.2054L35.413 49.3196C34.8575 49.1068 35.9321 49.1743 35.0704 48.9926C34.2761 48.9148 34.2813 49.1432 33.6532 49.112C34.0456 48.9727 34.4646 48.9247 34.8783 48.9719L34.5772 48.8888C34.981 48.8461 35.3881 48.8461 35.7919 48.8888C35.2053 48.9978 36.0619 48.9511 36.311 49.0809C36.3681 48.9615 35.9944 48.9615 36.4356 48.8888C36.1049 48.879 35.7754 48.846 35.4493 48.7902C36.5706 48.9199 36.4875 48.432 37.4634 48.5877C37.0066 48.6189 37.614 48.7746 37.6659 48.8369C37.8787 48.8369 38.3096 48.8369 38.4912 48.8057L38.3407 48.6189C38.9169 48.567 39.0986 48.9563 39.7682 48.8005C39.8565 48.6967 39.1868 48.7383 39.3062 48.7227C40.2146 48.65 40.5313 48.9511 41.3307 49.112C41.3602 49.0461 41.4055 48.9884 41.4625 48.9441C41.5195 48.8997 41.5866 48.87 41.6577 48.8576C41.5643 48.9615 41.7719 49.0238 41.4501 49.0912C41.7276 49.1232 42.0085 49.1074 42.2807 49.0445C41.72 48.9667 42.5143 48.894 42.6181 48.8317C42.9088 48.8317 42.5246 48.9407 42.3481 48.9667C42.5765 48.9978 42.8672 49.1639 42.9866 49.0082C42.9866 49.1224 42.3326 49.2885 41.8965 49.3041H42.1872C42.0163 49.3425 41.839 49.3425 41.6681 49.3041C41.9484 49.4027 41.9173 49.4961 41.8498 49.574C41.8135 49.574 41.8498 49.574 41.8498 49.5325C41.6162 49.4961 41.4345 49.5325 41.4864 49.5844C41.2736 49.7245 41.8083 49.6882 41.964 49.7661H42.3222L43.5317 49.3196C43.917 49.3007 44.3025 49.3535 44.6685 49.4754L44.7723 49.3456C45.224 49.3456 45.6496 49.4079 45.3589 49.5688C45.3589 49.5273 45.2811 49.5377 45.1876 49.5273C45.1702 49.5481 45.1466 49.5627 45.1201 49.5688L45.9299 49.5013C45.1098 49.683 45.8884 49.7401 45.7482 49.9685L46.5788 49.8958C46.0597 49.8232 46.5788 49.7816 46.7501 49.7505C46.7968 49.8803 47.4146 49.7505 47.7104 49.7505C48.0693 49.7892 48.4313 49.7892 48.7902 49.7505C48.7902 49.7038 49.2003 49.491 49.4079 49.3612C48.8317 49.3196 49.1691 49.2625 49.1224 49.1847C49.1824 49.1967 49.2441 49.1967 49.3041 49.1847C49.3819 49.1483 49.1899 49.138 49.1743 49.0964C48.6678 49.0979 48.1655 49.1875 47.6897 49.3612C47.8766 49.4442 48.0063 49.2833 48.2088 49.3612C47.8186 49.4676 47.412 49.501 47.0097 49.4598L46.8436 49.3508L46.3245 49.4079C46.5373 49.356 46.4127 49.2418 46.9474 49.221C46.8799 49.1172 46.4283 49.221 46.0909 49.221L45.9196 49.3612C45.9818 49.2833 45.2811 49.2625 45.7846 49.1587L46.5944 49.0445L46.366 48.9459L47.0512 48.9199L46.8903 48.9926C47.9908 48.894 47.2173 49.2833 48.323 49.1068C48.7652 48.9273 49.2474 48.87 49.7194 48.9407C49.2262 48.9874 49.6674 49.0601 49.4858 49.1639C49.8035 49.205 50.1264 49.1527 50.415 49.0134C50.5447 49.1016 50.6382 49.1743 50.1866 49.1691C50.1346 49.3612 50.7783 49.1224 50.8199 49.3196C52.3045 49.2781 51.993 48.6552 53.732 48.8421L53.6697 48.9251C54.7598 48.7798 55.3983 48.8421 56.4106 48.7279L57.2255 48.8836C57.049 48.9251 56.5767 49.1068 56.8051 49.1899C56.4014 49.0836 55.9869 49.0244 55.5696 49.0134C55.5281 49.0653 55.6994 49.0964 55.7773 49.1276C55.539 49.1053 55.2992 49.1053 55.0609 49.1276C55.0609 49.1691 55.445 49.2054 55.1699 49.2418L54.7079 49.138C54.1006 49.2262 54.4224 49.4546 53.7009 49.4235C53.8912 49.256 54.1221 49.1415 54.3705 49.0912C54.0435 49.0912 54.8065 49.0082 54.5055 48.9511C54.0713 49.0568 53.6281 49.1211 53.1818 49.1432C53.2591 49.1024 53.3438 49.0777 53.4309 49.0705L52.5173 49.029C52.7457 49.1224 51.7698 49.1587 51.8581 49.3041C52.8288 49.3352 52.5433 49.2574 53.6489 49.3041C53.3298 49.3545 53.0253 49.4731 52.7561 49.6519C52.7356 49.6468 52.7143 49.6468 52.6938 49.6519C52.5277 49.8024 52.6938 49.8336 52.6938 50.0827C53.2129 49.8907 53.5399 50.0256 54.1317 49.8958C54.2407 49.7557 53.7787 49.7349 53.4828 49.7816L54.0019 49.6726L53.8981 49.7401H55.2374C55.0691 49.7544 54.9078 49.8136 54.7702 49.9114C54.9447 49.9134 55.1186 49.9325 55.2893 49.9685C55.2478 49.8387 55.2893 49.7453 55.4346 49.7401C55.9983 49.6986 56.5647 49.7691 57.101 49.9478H57.2048C57.049 49.8232 57.7966 49.6674 58.0561 49.5117C58.0561 49.6519 58.5025 49.5688 58.7517 49.6207C58.8763 49.4494 58.6842 49.2418 58.3728 49.1328C57.8069 49.3196 58.0613 49.3041 57.8017 49.5273L56.8777 49.7245L57.0802 49.5844C56.613 49.5532 56.1718 49.7453 56.1977 49.5844C56.4365 49.4598 56.8466 49.5065 57.0854 49.3819L56.7739 49.3352C57.293 49.1432 57.0594 49.4806 57.7083 49.3352C57.4591 49.2106 57.7654 49.3352 58.0405 49.2054C57.8121 49.1276 56.8933 49.3196 57.075 49.0705C57.4072 48.9459 58.2378 49.2781 58.6686 49.0082V49.0341C59.0627 49.0422 59.4523 48.9493 59.8003 48.7642C60.1292 48.7646 60.457 48.7245 60.7762 48.6448V48.7123L61.207 48.65C61.0098 48.7902 60.6879 48.6863 60.3298 48.7383L60.3869 48.8628C59.9508 48.7434 59.6809 48.9978 59.3487 49.1328C59.821 48.9874 60.7139 49.0601 60.8073 48.7954L61.1136 48.9044L61.2538 48.8421C61.4873 48.9199 61.2538 49.0912 60.8437 49.1587C60.7658 49.1587 60.7243 49.1224 60.745 49.0912C60.4784 49.2216 60.1854 49.2891 59.8885 49.2885L60.1429 49.2003C59.6792 49.1959 59.2196 49.2879 58.7932 49.4702C59.6705 49.4702 60.527 49.4079 61.3472 49.33C61.5652 49.0186 61.8351 48.8109 61.9338 48.5462C62.5137 48.4229 63.1061 48.3689 63.6987 48.3853L63.6572 48.4424C63.8675 48.4457 64.0771 48.4195 64.2801 48.3645C64.5293 48.406 64.1244 48.5254 64.2801 48.541L65.0536 48.3697C65.0172 48.4943 64.358 48.567 64.0465 48.6085C64.1036 48.6085 64.223 48.5618 64.1815 48.5462C63.8129 48.5462 63.1433 48.8109 62.9772 48.65C62.8059 48.6967 63.325 48.4839 62.728 48.5358C62.3179 48.5047 62.2089 48.676 62.1622 48.7331C62.1155 48.7902 62.8059 48.7694 62.593 48.8732C62.8652 48.7979 63.1463 48.7595 63.4288 48.759C63.1173 48.8005 62.7072 48.9822 62.5359 48.8888C61.9338 49.0757 62.048 49.4079 62.3387 49.4079C62.2608 49.3093 63.4547 49.1743 62.6346 49.1172C63.1178 48.9651 63.6102 48.8437 64.1088 48.7538V48.7798L64.6954 48.6863C64.6123 48.7331 64.441 48.785 64.441 48.8525L65.2353 48.5773C64.7888 48.7538 65.5259 48.6292 65.7543 48.6604C65.827 48.5462 66.1333 48.432 65.8218 48.406C65.5104 48.3801 65.6298 48.4839 65.3027 48.5306L65.7232 48.3126H65.7595L66.0087 48.1465C66.6109 48.0842 65.7855 48.4943 66.5278 48.2711L66.4032 48.0946C67.2977 48.0884 68.1908 48.0225 69.0766 47.8973C68.9157 48.0271 68.8637 48.2088 69.1181 48.2763C68.7139 48.3043 68.3118 48.3563 67.9138 48.432C67.8307 48.432 68.3706 48.1465 68.7963 48.1309C68.5471 47.8558 67.7581 48.4579 67.6698 48.1309C66.5797 48.1309 66.9067 48.5306 65.9724 48.4579C65.9724 48.5981 65.718 48.5566 65.6817 48.6812C65.9827 48.8784 66.9067 48.5306 67.5089 48.5306C67.4406 48.547 67.3756 48.5751 67.3168 48.6137C67.6192 48.6103 67.919 48.5577 68.2045 48.4579H68.1682C68.6873 48.2555 68.5004 48.5202 68.8118 48.541C68.9312 48.5047 69.3309 48.4839 69.2738 48.3905L69.8448 48.4424L69.7981 48.2918C70.1044 48.2399 70.1875 48.3282 70.4522 48.1932V47.97L69.6787 48.0375C70.0577 47.9337 69.767 47.8921 70.1978 47.7987C69.7462 48.0219 70.5508 47.8246 70.6183 47.944L70.9194 47.8194L70.8415 47.8714C71.1011 47.9025 71.127 47.7727 71.4229 47.7468C71.0865 47.679 70.7379 47.7059 70.4159 47.8246C70.7543 47.6899 71.1011 47.5772 71.4541 47.4872C71.744 47.4257 72.0403 47.3996 72.3365 47.4094C71.7499 47.5599 72.6117 47.7883 71.4022 47.8817C71.4524 47.863 71.5076 47.863 71.5579 47.8817C71.371 47.7312 70.8467 48.0063 70.5975 48.1101C70.6806 48.1984 70.4107 48.2659 70.8779 48.2555C70.7221 48.214 71.2308 47.97 71.6825 47.9804L71.6409 48.2088L72.2794 48.1309H72.2223C72.4819 48.2295 72.8972 47.9959 73.3436 48.0011C73.6498 47.8714 74.8697 47.7104 74.3091 47.5807C74.7244 47.643 75.0358 47.4094 75.4563 47.3003H74.9061C75.2317 47.2003 75.5349 47.0382 75.7989 46.8228C75.8612 46.8695 75.9806 46.8955 75.8924 46.9785C76.7497 46.8796 77.5907 46.6702 78.3944 46.3556C78.9862 46.2362 79.1367 46.4646 79.9517 46.1791C80.1178 46.1064 79.7752 46.0078 80.3307 45.9455C80.3722 45.9455 79.8427 46.2258 80.4449 46.0649C80.8394 45.8002 81.4831 45.9092 82.0022 45.6288C82.3136 45.6288 82.8223 45.4575 82.7497 45.6288C82.3279 45.6971 81.9174 45.8228 81.5298 46.0026C81.5765 45.9092 81.1768 46.0026 81.5298 45.8624C80.7927 45.9403 81.0885 46.0597 80.4345 46.1428C80.4033 46.205 80.7979 46.2102 80.9224 46.1428C80.9692 46.3192 79.6818 46.5269 80.2995 46.6048C80.9899 46.4594 81.0989 46.0441 81.7374 46.0857C81.5246 46.257 81.1353 46.2518 80.8757 46.5113L81.3948 46.4646L81.7167 46.2518V46.2829C82.6147 46.2258 82.4642 45.8988 83.2013 45.6081C82.7289 45.6081 83.2013 45.2811 82.8691 45.2914C83.3882 45.1357 83.7515 45.0578 83.8034 45.2291C82.8898 45.634 83.8034 45.4316 82.9677 45.8417C83.1286 45.8676 82.8223 46.1583 83.357 46.0389C83.9176 45.7534 83.139 45.9403 83.7152 45.7223C83.7567 45.7223 83.7931 45.7223 83.7827 45.7638C84.0266 45.5977 84.1045 45.7119 84.4108 45.5198L84.3381 45.5769C84.7742 45.5769 84.7482 45.333 85.1271 45.3485C84.9506 45.2603 85.3348 45.1772 85.5217 45.0319C85.0854 45.0119 84.6484 45.0538 84.2239 45.1565C84.1668 45.2811 84.2239 45.3278 83.9644 45.4575L84.4108 45.3174C84.3173 45.3589 84.2499 45.4108 84.1668 45.4524L83.7204 45.5198C84.2395 45.2966 83.9695 45.2551 84.172 45.0838C84.6911 44.9904 84.5769 44.9384 84.9039 44.8813C84.9039 45.0423 85.9421 44.8813 86.5495 44.7827L86.2795 44.8554C85.8902 45.0786 86.6066 44.8969 86.6325 44.9281L86.918 44.762C86.8609 44.762 86.7935 44.8502 86.918 44.8294C87.3229 44.6737 87.2503 44.5336 87.6552 44.3778C87.7123 44.4453 87.4008 44.6841 87.6552 44.6478C87.8168 44.6977 87.9871 44.7134 88.1552 44.6937C88.3232 44.6741 88.4853 44.6195 88.6311 44.5335C88.7308 44.4589 88.841 44.3994 88.9581 44.3571C88.9581 44.3571 88.9062 44.383 88.901 44.3934L89.2903 44.3622C89.0308 44.6062 88.6466 44.5024 88.3819 44.7464V44.8865C88.1349 44.9687 87.9033 45.0915 87.6967 45.2499C87.9895 45.1681 88.2744 45.0604 88.548 44.9281C88.6363 44.9955 88.3611 45.1513 88.3248 45.1772L88.3611 45.0786C87.842 45.1305 87.6603 45.4472 87.0374 45.5977C86.9388 45.5977 86.9959 45.5977 87.0063 45.5614C86.5443 45.8469 85.9992 45.8157 85.558 46.1272L85.6982 46.013L84.1409 46.7916V46.8487C84.2239 46.8487 83.9747 46.9266 83.8398 46.937C83.5231 47.0927 83.222 47.2329 82.9729 47.3471C83.0829 47.3649 83.1951 47.3649 83.3051 47.3471C83.3933 47.2588 84.0111 47.1498 83.8917 47.0304C84.1928 47.0304 84.608 46.7916 84.8261 46.7864C84.4315 46.7864 85.0493 46.584 85.096 46.4906C85.2465 46.5425 85.641 46.3244 85.6151 46.4542C85.6982 46.4542 85.4075 46.4542 85.2673 46.5477C84.9091 46.7709 86.0148 46.4386 85.558 46.6826C86.1498 46.4231 86.9751 46.2154 87.5721 45.9092L87.2035 45.9715C87.5406 45.8515 87.8858 45.7561 88.2365 45.6859C88.0341 45.769 87.7849 45.8417 87.5254 45.9507C87.5565 46.0908 88.1691 45.7482 88.2262 45.8209L88.9269 45.3485L88.5843 45.4524C89.0549 45.2602 89.5412 45.1091 90.0378 45.0007C89.8042 45.2862 89.254 45.2759 88.7245 45.5198C88.3456 45.7223 89.0308 45.6133 88.6674 45.7846C88.8356 45.7742 88.9975 45.7166 89.1346 45.6185H89.2903C89.01 45.8936 88.2521 46.1376 87.7694 46.4127C87.8057 46.3764 87.842 46.3452 87.8472 46.3244C87.4392 46.3854 87.0412 46.5006 86.6637 46.667C86.8062 46.665 86.945 46.6218 87.0634 46.5425C87.0893 46.584 86.7363 46.7086 86.6118 46.7968C86.9803 46.7345 86.7052 46.8747 86.944 46.8332C86.7186 46.9359 86.4815 47.0109 86.238 47.0564C86.0719 47.0564 86.3315 46.9318 86.2795 46.8591C85.9992 46.9941 85.8124 46.8591 85.4075 47.0564C85.9888 46.9266 85.3088 47.2796 85.1271 47.3886H85.2258C85.1711 47.4534 85.099 47.501 85.018 47.5259C84.937 47.5507 84.8505 47.5517 84.769 47.5288C84.9922 47.4249 85.2258 47.3886 85.1323 47.3055C84.9689 47.3523 84.8093 47.4113 84.6548 47.482L84.7949 47.3626L84.0318 47.5962C83.901 47.7334 83.7861 47.8849 83.6892 48.0479C83.4715 48.0564 83.2592 48.1189 83.0715 48.2295L83.1442 48.1724C82.7388 48.2076 82.3457 48.3297 81.9918 48.5306C81.7322 48.5306 83.5958 47.6066 81.888 48.1101C81.2287 48.2711 81.5402 48.4579 81.182 48.6292C81.182 48.6292 81.182 48.5981 81.182 48.5929C80.8913 48.6396 80.8809 48.7434 80.6629 48.8369C80.8426 48.8414 81.0207 48.8022 81.182 48.7227C81.1197 48.8473 80.5798 48.8576 80.3774 48.9874C80.6265 48.7642 79.8012 49.0549 80.0088 48.9199C79.4899 48.9572 78.9877 49.1192 78.545 49.3923C78.1089 49.2729 77.8597 49.5636 77.2057 49.6C77.3043 49.6 77.4756 49.5221 77.6158 49.5117C77.9532 49.3145 76.9461 49.5792 77.4808 49.3508C77.3666 49.3923 77.4808 49.4183 77.6054 49.3767C77.813 49.3145 78.0051 49.2158 77.9376 49.1691H77.4185L77.5898 49.1016H76.7125C76.7125 49.1328 76.78 49.1483 76.8164 49.1587C75.8976 49.2729 74.8697 49.5532 74.0651 49.6778C73.9821 50.0723 72.1185 50.1969 71.506 50.4928C71.6617 50.3578 71.7292 50.1606 71.6098 50.0983C71.8472 49.9821 72.0983 49.8967 72.3573 49.8439C72.4196 49.8958 72.8349 49.8958 72.5857 50.0049C73.4837 49.8128 72.4352 49.8647 72.6791 49.6882C71.9419 49.8699 71.2172 50.0988 70.5093 50.3734V50.3319L70.0369 50.4824C70.4366 50.4513 70.447 50.6589 69.9279 50.6589H69.9902C69.5395 50.6853 69.0916 50.7478 68.6509 50.8458L68.3602 51.0067C67.9034 51.0482 67.8411 50.8302 67.6906 50.716C67.1524 50.8018 66.6284 50.9607 66.1333 51.1884C65.8945 51.1209 64.8252 51.1884 65.3754 51.0327C64.7473 51.1884 64.9342 51.7023 63.8181 51.5206L64.0932 51.4012C63.055 51.531 61.56 51.8529 61.0669 51.7906C61.4251 51.422 59.7224 51.5518 59.5096 51.2299C59.5719 51.3026 59.1774 51.3545 59.1203 51.4012C59.0601 51.3733 58.9945 51.3589 58.9282 51.3589C58.8619 51.3589 58.7963 51.3733 58.7361 51.4012C59.1514 51.4428 58.4714 51.7698 59.2552 51.5829C58.7323 51.9207 58.1232 52.1009 57.5007 52.102V51.9151H58.1288C58.0509 51.8165 58.4091 51.8009 58.5492 51.7438C57.2619 51.7438 58.6946 51.4116 57.3865 51.5102C57.2671 51.6089 57.3501 51.5673 57.0075 51.6245C57.1684 51.6245 57.1944 51.5102 56.9348 51.5258L56.6961 51.6504C56.2237 51.4428 57.4384 51.4583 57.0439 51.313C57.563 51.178 58.4091 51.0638 58.2326 50.8925C57.4072 50.8925 57.5162 51.2767 56.6753 51.2455L56.5819 51.1728C56.2808 51.2403 56.2393 51.3701 56.0628 51.448C56.0628 51.4064 55.9693 51.3805 55.7721 51.3753C55.253 51.5829 54.9311 51.6348 54.4691 51.8477C55.7201 51.6452 55.554 51.9359 56.8466 51.7335C56.6441 51.8061 55.7305 51.8944 55.6838 52.0864V51.9151C55.2369 52.0336 54.7757 52.0895 54.3134 52.0813L54.6352 51.9878C53.9293 52.1124 53.4517 51.8269 52.9066 52.0761C53.0665 52.0841 53.2267 52.0737 53.3842 52.0449C52.9831 52.1132 52.5754 52.1341 52.1695 52.1072L51.3597 52.3616C51.3597 52.2941 50.8406 52.2993 51.095 52.1851C50.6884 52.1537 50.2798 52.2085 49.8959 52.346C49.2885 52.2058 50.415 52.2681 50.4721 52.0761C49.7438 52.0255 49.0121 52.0744 48.297 52.2214C48.4631 52.2526 48.5462 52.2733 48.541 52.3097C48.3604 52.2702 48.1747 52.2597 47.9908 52.2785L47.8662 52.3668C47.5547 52.3097 47.6014 52.2577 47.8662 52.1851C47.5703 52.1851 47.2173 52.346 46.911 52.2162C47.4301 52.1072 48.0634 52.2162 48.3282 52.128C47.29 52.2214 47.29 51.858 45.9247 51.9671C45.9247 51.9255 46.1324 51.8425 45.878 51.8373C45.2811 51.8684 45.7171 52.0242 45.5302 52.1228C45.85 52.0664 46.1793 52.108 46.475 52.2422L46.3504 52.3149C46.3504 52.2785 46.0441 52.2733 45.9559 52.237L45.8832 52.3875C45.9144 52.2214 45.4576 52.0916 45.089 52.1487C45.4576 52.2733 45.3589 52.2629 45.4576 52.455C44.9384 52.6263 44.8814 52.2733 44.3052 52.455C44.3467 52.4031 44.8243 52.3668 44.4142 52.3252C44.0612 52.3252 44.1027 52.4394 43.8639 52.4758C44.1338 52.3408 44.0664 52.237 44.383 52.0813C44.6779 52.0868 44.9728 52.0712 45.2655 52.0345L44.7464 51.91C45.2655 51.91 45.1357 51.7594 45.1824 51.7075C44.2636 51.5518 44.4868 51.9048 43.8951 51.858C43.6096 51.9515 44.4505 51.8892 44.0041 51.9826C43.4486 51.9515 43.8743 52.0709 43.2514 52.1176L43.3552 52.0553C43.1683 51.9671 42.9814 52.0553 42.7582 52.0553C42.535 52.0553 43.023 52.5433 42.0263 52.5225C42.0782 52.4862 42.0938 52.4602 42.0938 52.4446L43.0749 51.3545C42.073 51.3545 40.9206 51.2663 39.763 51.1417C39.4983 50.9029 40.5988 50.986 40.5313 50.8821L41.0504 50.9444C41.0192 51.0431 39.9447 50.9444 40.4119 51.1261C41.1622 51.1678 41.9148 51.1382 42.6596 51.0379C42.3949 50.8043 41.4968 51.0379 40.9258 50.851C41.1395 50.8777 41.3558 50.8777 41.5695 50.851L39.8409 50.6953L39.7007 50.742C40.1108 50.7835 40.4015 50.8147 40.4379 50.825C39.8876 50.7835 39.3997 50.8873 39.3997 51.0534H39.4983L39.2958 51.095L38.865 51.0379ZM3.62332 45.7534C3.65622 45.7494 3.68799 45.7388 3.71675 45.7223C3.71675 45.7223 3.71675 45.7586 3.62332 45.7534ZM49.6259 50.6485C48.894 50.6485 48.1569 50.5966 47.4509 50.5759C48.7227 50.8977 49.6259 51.1417 47.4976 51.1469H47.3575C47.76 51.1795 48.1645 51.1795 48.567 51.1469C49.0837 50.9764 49.5899 50.7753 50.0827 50.5447C49.953 50.4565 49.7661 50.5447 49.5325 50.5447L49.6259 50.6485ZM50.145 51.1676C50.5655 51.1988 50.4669 51.1261 50.5292 51.0586L50.0931 51.095C50.171 51.1261 50.1969 51.1521 50.1658 51.1884L50.145 51.1676ZM50.5032 50.9963C50.469 51.0035 50.4336 51.0035 50.3994 50.9963H50.5032ZM42.4208 50.8873H42.4623H42.1665C42.2571 50.9042 42.3494 50.9112 42.4416 50.9081L42.4208 50.8873ZM43.2618 51.069L43.3604 50.9496H43.0801C43.0992 50.9882 43.1278 51.0213 43.1632 51.0458C43.1986 51.0703 43.2397 51.0855 43.2825 51.0898L43.2618 51.069ZM45.9715 51.4999C46.1428 51.3545 46.719 51.3493 46.7501 51.1832C46.7916 51.1417 46.6671 51.1261 46.5321 51.1105H46.0493C46.0493 51.1365 46.013 51.1573 45.9559 51.178C46.122 51.178 46.2362 51.2403 46.1687 51.3441C45.7327 51.1209 45.7742 51.4999 45.307 51.4376C45.1772 51.557 45.8469 51.5622 45.9922 51.5206L45.9715 51.4999ZM81.7374 47.2432C81.782 47.2684 81.829 47.2893 81.8776 47.3055L81.5765 47.4665C80.9951 47.5703 80.4812 47.4665 80.0192 47.7675C79.8259 47.7682 79.6353 47.7219 79.4638 47.6326C79.5737 47.6127 79.6846 47.5988 79.796 47.591C81.1664 46.9422 80.6162 47.7052 81.7374 47.2432ZM75.0618 48.3801C75.0914 48.3719 75.1171 48.3535 75.1345 48.3282C74.1798 48.7506 73.175 49.0489 72.1445 49.2158C72.5068 49.2986 72.8795 49.3266 73.2501 49.2989L73.0114 49.4806L72.8245 49.4027L72.3884 49.6C72.5286 49.6726 72.9075 49.6 73.1619 49.6C73.1619 49.5688 73.9457 49.2729 74.1534 49.1483H73.5045C73.9574 49.0941 74.4052 49.0039 74.8438 48.8784C74.8438 48.8109 74.2468 48.8109 74.2001 48.9719C74.1118 48.8836 74.7711 48.7642 74.3351 48.7279C74.8702 48.5614 75.4256 48.4688 75.9858 48.4528L76.0844 48.6137C76.4945 48.6137 76.3128 48.3541 76.806 48.3593C76.2298 48.5099 76.9409 48.5254 76.4789 48.6292C76.6399 48.6656 76.5205 48.8057 76.998 48.7019C77.3407 48.4008 77.5171 48.7383 77.8442 48.4683C78.1037 48.4683 77.6106 48.6604 78.0985 48.5877C78.6176 48.3541 78.5761 48.2763 78.5761 48.105C78.057 48.1724 78.057 48.4424 77.6106 48.4891L78.3892 48.0323C78.2646 48.0256 78.1397 48.0414 78.0207 48.079C78.1675 48.0321 78.306 47.962 78.4308 47.8714L78.6021 47.7468C78.2833 47.8473 77.9498 47.893 77.6158 47.8817L77.6677 47.7883C77.4679 47.776 77.2699 47.8328 77.107 47.9492C76.6866 48.0427 76.2817 48.2347 76.1675 48.1517L76.318 48.0479C75.7782 48.214 75.7211 48.2347 75.0618 48.3593V48.3801ZM57.7135 50.3007C58.0509 50.5707 58.4247 50.8198 59.93 50.6537H59.8107C60.5893 50.7783 61.2745 50.2956 62.2141 50.4149C61.8947 50.5065 61.5941 50.6542 61.3264 50.851L61.7988 50.7212C61.6794 50.8925 62.1518 50.7731 62.5048 50.7472L62.2089 50.9652C61.9597 50.9303 61.7061 50.9426 61.4614 51.0015C61.0741 50.8787 60.6634 50.8484 60.2623 50.9133C60.3194 51.0379 61.3005 50.9133 60.8696 51.1521C61.2434 51.0327 61.3005 51.1521 61.7002 51.0742C61.3212 51.1988 61.6171 51.2611 61.342 51.3805L61.9961 51.2767C61.9961 51.3182 61.0461 51.4583 61.5964 51.5673C61.8559 51.4791 62.5671 51.4999 62.5671 51.3597V51.4012C63.0862 51.4012 62.7643 51.1832 63.3769 51.204C63.3769 51.1313 63.2575 51.095 63.0395 51.1313C62.8611 51.2287 62.6683 51.2971 62.4684 51.3338C62.2868 51.2403 62.9201 51.3026 62.6449 51.1469C62.5048 51.069 61.6535 51.313 61.913 51.0846H62.4321C62.4321 50.9444 62.7903 50.9185 62.7695 50.8095C63.0602 50.7316 63.3613 50.8562 63.652 50.7056C63.7714 50.607 63.5326 50.4617 64.0465 50.4824C64.4618 50.6485 65.6038 50.4824 66.0502 50.3994L66.424 50.2644C66.3825 50.1814 65.6973 50.363 65.9049 50.2229L66.4915 50.1191L66.4499 50.1762C66.6454 50.1505 66.837 50.1017 67.021 50.0308C66.8496 50.1554 66.4136 50.1658 66.5018 50.3007C66.6947 50.3271 66.8903 50.3271 67.0832 50.3007C67.0313 50.3007 66.9846 50.3371 66.995 50.3578C67.566 50.3578 67.5141 50.1243 67.6543 50.062C68.1733 49.8024 67.0625 49.9581 67.1352 49.8024L68.7755 49.5065C68.6405 49.574 68.5056 49.6363 68.5627 49.6882C68.978 49.6882 68.5886 49.8024 69.1544 49.6882C69.087 49.5013 69.8552 49.465 70.2394 49.2937C70.4366 49.3456 70.4781 49.356 70.0681 49.4183C70.1355 49.5429 70.6754 49.4183 70.8727 49.4183C70.9817 49.3716 71.1737 49.3196 71.2879 49.2729C71.1166 49.2366 71.1737 49.1432 71.5163 49.0341V49.0082C70.8913 49.0086 70.2688 49.0871 69.6632 49.2418L69.7566 49.1639C69.0714 49.1639 68.3239 49.5948 67.9813 49.3923C67.9813 49.2937 67.8463 49.3923 67.8359 49.2522L67.3584 49.4235L67.4726 49.3196L66.6316 49.4546V49.4287L65.7024 49.8543C65.7024 49.9114 65.7388 49.927 65.609 49.9893C65.5044 50.0288 65.3938 50.0499 65.282 50.0516C65.0743 50.0516 64.9238 49.9893 64.6642 49.9789L65.4481 49.8751C65.5 49.7661 65.4481 49.6674 65.0328 49.6415C65.1885 49.6415 65.2456 49.5325 65.0328 49.5429C65.0328 49.5429 64.5137 49.6623 64.7213 49.7245C63.979 49.8439 62.7488 49.7245 61.6067 49.9945C62.4113 49.8024 60.9423 49.9114 61.8455 49.792C61.1967 49.683 61.3264 49.9997 60.6672 50.0308C60.6101 49.9737 61.0202 50.0049 61.1863 49.8751C60.1117 49.901 59.4006 50.2904 58.3572 50.3111L58.3053 50.1865L57.7135 50.3007ZM55.6682 50.5759L55.0609 50.6537H55.118L54.521 50.7835C54.8948 50.8198 55.144 50.9496 54.63 51.0379C54.6716 50.9808 54.5158 50.9237 54.6975 50.8821C54.3445 50.825 53.5815 50.7783 53.7839 50.9652C54.4484 50.7524 53.95 51.204 54.4691 51.0482C54.2028 51.1333 53.9276 51.1873 53.6489 51.2092C53.9241 51.0898 53.5763 50.9704 53.161 50.934C52.9793 50.9704 52.4862 50.96 52.1903 51.0171C52.2993 51.1365 52.0397 51.2144 52.5329 51.2247C52.2772 51.2714 52.0151 51.2714 51.7594 51.2247C51.884 51.2247 52.102 51.178 52.0813 51.1365C51.8984 51.0701 51.7086 51.0248 51.5154 51.0015L51.204 51.0275C51.2317 51.0354 51.258 51.0476 51.2818 51.0638L50.9392 51.178C51.3961 51.1105 51.1521 51.2299 51.1469 51.2974C51.1469 51.1573 50.851 51.2974 50.6953 51.2974L51.0379 51.4376C50.8769 51.5154 50.4513 51.3441 50.5188 51.4895C51.0711 51.5253 51.6257 51.5079 52.1747 51.4376L51.9048 51.3338C52.6419 51.2299 52.3668 51.5154 53.1973 51.4791C53.5399 51.3649 54.4484 51.422 54.4587 51.2144C54.3549 51.2818 54.9778 51.3753 55.2633 51.2663C55.5644 51.0638 56.5144 50.986 56.2237 50.9133C55.9641 50.9133 55.6267 51.0482 55.4139 50.9133L55.933 50.851L55.6008 50.7627C55.7721 50.8095 55.7513 50.7056 55.6682 50.5551V50.5759Z" fill="white"/>
<path d="M88.678 44.7776C88.8026 44.6893 89.14 44.5855 89.0414 44.5076C89.0829 44.6166 88.4496 44.7205 88.678 44.7776Z" fill="white"/>
<path d="M89.114 44.7516C89.114 44.7153 89.114 44.6789 89.2489 44.627L88.844 44.7931L89.114 44.7516Z" fill="white"/>
<path d="M89.7937 45.333C89.979 45.1685 90.199 45.0478 90.4374 44.98C90.6554 45.1928 89.9183 45.2447 89.8456 45.5354C90.4737 45.3485 90.5827 45.0526 91.0758 44.8502C90.78 44.8346 89.7366 45.1305 89.7937 45.333Z" fill="white"/>
<path d="M89.6176 45.7586L89.9447 45.5822L89.9083 45.577L89.5813 45.7535L89.6176 45.7586Z" fill="white"/>
<path d="M81.4884 45.6444C81.4365 45.5717 81.2392 45.7067 81.1302 45.7534C81.2558 45.7419 81.3777 45.7048 81.4884 45.6444Z" fill="white"/>
<path d="M11.8925 45.8625C10.9997 45.7068 10.1068 45.5337 9.21399 45.3434C9.98226 45.5199 10.6934 45.686 11.8925 45.8625Z" fill="white"/>
<path d="M72.7569 48.0167C73.4629 47.8143 73.7588 47.6119 74.4855 47.4457C73.4941 47.4457 73.2605 47.9648 72.4091 47.8974L72.7569 48.0167Z" fill="white"/>
<path d="M72.8966 47.3004C73.042 47.4406 72.3775 47.5807 72.4969 47.6794C72.9745 47.56 72.6942 47.4925 73.1406 47.4302L72.8966 47.3004Z" fill="white"/>
<path d="M76.6607 49.3249L76.453 49.4495L76.6295 49.382L76.6607 49.3249Z" fill="white"/>
<path d="M69.632 47.9596L69.7099 47.9077L69.3361 47.9129L69.632 47.9596Z" fill="white"/>
<path d="M76.4424 49.7194L76.7798 49.6882L76.9303 49.5844L76.4424 49.7194Z" fill="white"/>
<path d="M73.3751 49.3975L73.6606 49.2989C73.6035 49.3197 73.183 49.3197 73.3751 49.3975Z" fill="white"/>
<path d="M67.4102 48.1932L67.0624 48.2971L67.0987 48.3074L67.4465 48.2036L67.4102 48.1932Z" fill="white"/>
<path d="M71.1372 50.2125C71.3604 50.306 70.5506 50.3371 70.9867 50.3786C71.3604 50.306 71.1943 50.2644 71.1372 50.2125Z" fill="white"/>
<path d="M66.6735 49.9738C66.6235 49.9788 66.5746 49.991 66.5281 50.0101L66.6735 49.9738Z" fill="white"/>
<path d="M66.6734 49.9737C66.8165 49.9783 66.9596 49.9643 67.0991 49.9322C66.9561 49.9074 66.809 49.9217 66.6734 49.9737Z" fill="white"/>
<path d="M64.8771 50.2074H65.0224C64.8823 50.2852 64.9497 50.2697 65.0743 50.2074C65.1989 50.1451 65.2093 50.1503 65.2249 50.1243L65.3131 50.062L65.1937 50.1243C64.9653 50.1347 64.8252 50.1606 64.8771 50.2074Z" fill="white"/>
<path d="M58.0507 48.7072C58.5698 48.7072 58.7099 48.7072 58.6892 48.8265C59.2083 48.8265 59.0993 48.6656 59.3952 48.6033C58.8345 48.6656 58.7203 48.6241 58.0507 48.7072Z" fill="white"/>
<path d="M59.3956 48.6033H59.5876C59.5238 48.5968 59.4594 48.5968 59.3956 48.6033Z" fill="white"/>
<path d="M67.1146 51.012L66.8031 51.1988L66.9173 51.1625L67.1146 51.012Z" fill="white"/>
<path d="M57.2775 48.7071C57.386 48.6912 57.4961 48.6912 57.6046 48.7071C57.6097 48.6241 57.1789 48.7071 57.2775 48.7071Z" fill="white"/>
<path d="M59.4212 50.4565C59.4783 50.5084 59.8157 50.4565 59.9403 50.4565C59.7534 50.4669 59.5821 50.3008 59.4212 50.4565Z" fill="white"/>
<path d="M55.8033 49.1899C55.9019 49.1899 56.0524 49.247 55.9901 49.33C56.1303 49.2729 56.312 49.0964 55.8033 49.1899Z" fill="white"/>
<path d="M58.461 50.5084L58.5388 50.5344L58.8918 50.4461L58.461 50.5084Z" fill="white"/>
<path d="M59.8522 51.8321C60.2519 51.6868 59.1826 51.6037 59.8782 51.4532C58.9645 51.4013 59.9612 51.6141 59.2916 51.6453C59.6861 51.6504 59.8885 51.7854 59.8522 51.8321Z" fill="white"/>
<path d="M59.2918 51.6452C59.2296 51.64 59.1671 51.64 59.1049 51.6452H59.2918Z" fill="white"/>
<path d="M53.5139 51.2299L53.6488 51.1884C53.6025 51.1975 53.5573 51.2114 53.5139 51.2299Z" fill="white"/>
<path d="M57.158 51.8788L57.7602 51.6712C57.3604 51.8114 56.3326 51.8633 56.4053 52.0294C56.7091 52.0467 57.0131 52.0008 57.2982 51.8944L57.158 51.8788Z" fill="white"/>
<path d="M50.0672 49.0342L50.3267 48.9563H50.0049C50.0983 48.9667 49.9322 49.0965 50.0672 49.0342Z" fill="white"/>
<path d="M54.6669 51.1002C54.8412 51.1054 55.0154 51.0897 55.186 51.0535C55.1237 51.0223 54.6306 51.0171 54.6669 51.1002Z" fill="white"/>
<path d="M48.24 49.3041L48.6708 49.2729L48.1984 49.2885L48.24 49.3041Z" fill="white"/>
<path d="M46.2316 49.0134L46.1589 48.9823L45.8007 49.0394L45.8786 49.0757L46.2316 49.0134Z" fill="white"/>
<path d="M48.8893 52.3876C49.1852 52.3876 49.4084 52.2474 49.3409 52.2162H48.7647C48.9101 52.3512 48.9205 52.2162 49.2838 52.2422L48.8893 52.3876Z" fill="white"/>
<path d="M31.3534 48.567C31.6157 48.5187 31.8865 48.5608 32.1217 48.6864C32.0386 48.7175 31.696 48.7227 31.9037 48.7954L32.4228 48.6137C33.0561 48.8058 31.9037 48.8629 31.5766 48.9148C32.2359 48.9978 32.4435 48.8732 33.1339 48.9148C32.9788 48.8894 32.8294 48.8366 32.6927 48.759C32.6927 48.6033 33.3312 48.7227 33.7984 48.759C33.5077 48.6656 33.6842 48.6241 33.9074 48.5774C33.9349 48.5813 33.9629 48.5813 33.9905 48.5774H34.0683H34.0112C34.0112 48.5774 34.0112 48.5358 33.9645 48.5047C33.6483 48.4839 33.3351 48.43 33.0301 48.3438C33.2585 48.6189 32.1632 48.3438 31.8414 48.3853H31.4728H31.3327C31.3327 48.3541 31.3327 48.323 31.5663 48.2918C31.3846 48.3282 30.8032 48.2607 30.8499 48.3438L29.5262 48.2192C29.4876 48.2071 29.4509 48.1897 29.4172 48.1673C29.3653 48.1673 29.3601 48.1673 29.3653 48.2036C27.4308 47.9787 25.5084 47.7399 23.5981 47.4872C23.8784 47.5443 24.1172 47.6326 24.4079 47.7001C23.9459 47.8091 24.8854 47.7935 24.7349 47.9337C24.5117 47.9549 24.2866 47.9265 24.0757 47.8506C23.9978 47.9181 24.2366 48.0219 24.195 48.1154C24.9114 48.3074 25.0723 47.9441 25.7523 48.0842C25.7108 48.1776 25.4824 48.2347 25.9496 48.2815H25.825C26.5881 48.2815 26.3856 48.567 26.8632 48.3593V48.4943C27.3252 48.4608 27.7892 48.4712 28.2492 48.5254C28.8404 48.5072 29.4321 48.5333 30.0193 48.6033L29.4639 48.7123C29.8636 48.8213 29.983 48.6552 30.2581 48.7123C30.2581 48.7123 30.2945 48.8421 30.0142 48.8421L31.4624 48.7279C31.805 48.6708 31.4002 48.6345 31.3534 48.567Z" fill="white"/>
<path d="M33.1391 48.9252C33.2244 48.9431 33.3114 48.9518 33.3986 48.9511L33.1391 48.9252Z" fill="white"/>
<path d="M23.1935 47.4354L23.5984 47.4873C23.4652 47.4581 23.3297 47.4408 23.1935 47.4354Z" fill="white"/>
<path d="M35.2001 48.8006C34.9613 48.7123 35.3922 48.7123 35.4389 48.6604L34.5564 48.6033C34.5564 48.6552 34.463 48.7123 34.4786 48.7591L35.2001 48.8006Z" fill="white"/>
<path d="M34.3072 48.4579C34.2368 48.5042 34.157 48.5344 34.0736 48.5462L34.5564 48.5773C34.5564 48.5358 34.5045 48.4943 34.3072 48.4579Z" fill="white"/>
<path d="M34.1927 51.3182L34.0369 51.313L33.793 51.3338L34.1927 51.3182Z" fill="white"/>
<path d="M31.7322 50.877C31.948 50.9477 32.1772 50.9672 32.4018 50.9341C32.1797 50.9038 31.9562 50.8848 31.7322 50.877Z" fill="white"/>
<path d="M32.1741 51.801L31.7692 51.8113L31.8004 51.8321L32.1741 51.801Z" fill="white"/>
<path d="M20.1259 47.5392H19.9339C19.9978 47.5448 20.062 47.5448 20.1259 47.5392Z" fill="white"/>
<path d="M23.5101 47.8974C22.5913 47.6119 24.1382 47.8506 23.8683 47.6119H23.3492L23.4011 47.5651L22.7782 47.4977C22.8924 47.6067 22.9858 47.6274 22.9443 47.7157C22.1241 47.5651 22.7003 47.5703 22.1085 47.3627L21.1897 47.2433H21.2728C21.227 47.2302 21.1784 47.2302 21.1326 47.2433C20.0944 47.1083 19.0562 46.963 18.018 46.8073C17.4418 46.8073 18.3035 47.0357 17.8623 47.1031C18.5164 47.2121 19.4767 47.4717 19.5649 47.29C19.5649 47.29 19.4871 47.3575 19.6169 47.399L20.0218 47.3056L19.6636 47.1966C20.2886 47.1596 20.9148 47.246 21.5064 47.4509C20.7952 47.4042 21.1222 47.643 20.1567 47.3938C20.1982 47.4457 20.3592 47.5599 20.1567 47.5496C21.267 47.7291 22.3866 47.8452 23.5101 47.8974Z" fill="white"/>
<path d="M12.4167 46.148L13.0033 46.0753L12.1416 45.9144L12.0533 46.0286C12.2283 45.9996 12.4079 46.0193 12.5724 46.0857L12.4167 46.148Z" fill="white"/>
<path d="M13.6678 46.0909C13.2161 46.0545 13.2058 46.2154 13.4394 46.3296C13.0137 46.3296 13.2525 46.1272 12.9203 46.231C12.9203 46.34 13.4394 46.3764 13.5432 46.3816L13.6678 46.0909Z" fill="white"/>
<path d="M16.9481 46.7761L16.8131 46.8177L17.1194 46.8903L16.9481 46.7761Z" fill="white"/>
<path d="M16.8138 46.8176L16.5075 46.7501C16.5166 46.8033 16.542 46.8522 16.5802 46.8903L16.8138 46.8176Z" fill="white"/>
<path d="M16.0502 46.6619L16.045 46.6412L15.7076 46.5581L16.0502 46.6619Z" fill="white"/>
<path d="M16.5074 46.7501C16.4762 46.6307 16.4399 46.5113 15.9883 46.4594L16.0454 46.6411L16.5074 46.7501Z" fill="white"/>
<path d="M29.2721 51.3701L28.9035 51.396L28.9399 51.4168L29.3084 51.3908L29.2721 51.3701Z" fill="white"/>
<path d="M27.2011 51.0535L26.9831 51.0846C27.057 51.0869 27.1308 51.0764 27.2011 51.0535Z" fill="white"/>
<path d="M25.5654 51.6141C25.1502 51.4532 26.1676 51.5414 25.3889 51.3961C25.3318 51.2871 25.716 51.1988 26.0793 51.2922C26.0378 51.3857 25.7108 51.2922 25.9288 51.4376C26.1884 51.3545 26.2714 51.4376 26.2039 51.2871C26.4695 51.2453 26.7303 51.1775 26.9826 51.0846C26.4635 51.0846 25.4253 50.8251 24.7868 50.9289C24.413 51.0586 24.5947 51.3182 24.5636 51.5674C24.6051 51.6348 25.5083 51.775 25.5654 51.6141Z" fill="white"/>
<path d="M26.2045 51.9412C26.3319 51.9598 26.4613 51.9598 26.5886 51.9412C26.5627 51.8789 26.3654 51.9567 26.2045 51.9412Z" fill="white"/>
<path d="M21.9421 49.4806C21.9005 49.5117 21.5424 49.4806 21.6098 49.5792L22.1289 49.6104C22.0521 49.5932 21.985 49.5466 21.9421 49.4806Z" fill="white"/>
<path d="M22.3887 49.6207H22.1499C22.2292 49.6299 22.3094 49.6299 22.3887 49.6207Z" fill="white"/>
<path d="M14.4465 46.2621C14.4465 46.1946 14.2285 46.1895 14.1091 46.1895C14.2187 46.2257 14.3318 46.25 14.4465 46.2621Z" fill="white"/>
<path d="M5.65279 44.6115L5.46072 44.5024C5.51619 44.5521 5.58169 44.5893 5.65279 44.6115Z" fill="#231F20"/>
<path d="M2.02414 45.6133C2.02414 45.6133 2.02414 45.6133 1.97742 45.6133C1.99277 45.6171 2.00879 45.6171 2.02414 45.6133Z" fill="#231F20"/>
<path d="M1.97786 45.634C1.82213 45.634 1.41204 45.4472 1.23035 45.4835H1.2615H0.955231C1.28878 45.5748 1.63215 45.6253 1.97786 45.634Z" fill="white"/>
<path d="M81.6598 56.5455C81.6598 56.5455 81.6598 56.5455 81.6598 56.5871C81.6598 56.6286 81.6286 56.5871 81.6598 56.5455Z" fill="white"/>
<path d="M81.9401 56.9297C81.812 56.8514 81.7163 56.7299 81.6701 56.5871C81.7688 56.6338 82.0906 56.6857 81.9401 56.9297Z" fill="white"/>
<path d="M81.9394 56.177L81.9965 56.3379C81.8823 56.3431 82.0069 56.2497 81.9394 56.177Z" fill="white"/>
<path d="M81.8098 56.4157L81.7371 56.4936L81.7423 56.3638L81.8098 56.4157Z" fill="white"/>
<path d="M76.3235 51.095C76.2873 51.1336 76.243 51.1638 76.1938 51.1832L76.3235 51.095Z" fill="white"/>
<path d="M76.577 50.5603C76.577 50.524 76.577 50.5032 76.577 50.4876C76.577 50.4721 76.5874 50.524 76.577 50.5603Z" fill="white"/>
<path d="M76.5152 51.3546L76.4737 51.3027C76.4842 51.3074 76.4935 51.3146 76.5007 51.3236C76.508 51.3326 76.5129 51.3433 76.5152 51.3546Z" fill="white"/>
<path d="M78.9967 54.355C78.9967 54.4432 78.9552 54.5315 78.9396 54.5938C78.8098 54.5574 78.9344 54.4432 78.9967 54.355Z" fill="white"/>
<path d="M77.2684 48.5047H77.1853C77.2165 48.4995 77.2476 48.4735 77.2684 48.5047Z" fill="white"/>
<path d="M77.7813 49.8387C77.7485 49.8581 77.7137 49.8737 77.6775 49.8855L77.7813 49.8387Z" fill="white"/>
<path d="M76.7853 51.4843V51.557C76.7853 51.557 76.7542 51.5155 76.7853 51.4843Z" fill="white"/>
<path d="M77.1903 48.0427C77.2357 47.9977 77.2843 47.9561 77.3357 47.9181C77.3216 47.9479 77.3014 47.9745 77.2763 47.996C77.2513 48.0174 77.222 48.0334 77.1903 48.0427Z" fill="white"/>
<path d="M77.9223 50.3008C77.9198 50.2714 77.9198 50.2419 77.9223 50.2125C77.9587 50.2333 77.9483 50.2644 77.9223 50.3008Z" fill="white"/>
<path d="M78.9961 54.355V54.2771C78.9961 54.2771 79.0168 54.3238 78.9961 54.355Z" fill="white"/>
<path d="M81.2337 56.4313C81.1974 56.4002 81.2337 56.3483 81.2649 56.2964C81.2659 56.3433 81.2552 56.3897 81.2337 56.4313Z" fill="white"/>
<path d="M73.5978 43.0074L73.5355 43.0386C73.5095 43.0282 73.5511 43.0126 73.5978 43.0074Z" fill="#231F20"/>
<path d="M75.908 44.2584C75.7627 44.1754 75.9807 44.0093 75.9703 43.9106L75.8769 43.9677L75.9443 43.8535L75.799 43.8847C75.8301 43.7134 75.6433 43.5473 75.8613 43.4435L75.6329 43.5058L75.7886 43.3033L75.6485 43.4279C75.5602 43.2462 75.7004 42.9088 75.69 42.9088L75.6069 42.9399C75.555 42.914 75.6069 42.8776 75.6329 42.8465L75.5083 42.888C75.5083 42.5973 75.1917 42.5558 75.2955 42.2184C75.2539 42.1353 75.2591 42.2703 75.1865 42.2807C75.1138 42.2911 75.1605 42.1198 75.2176 42.0886C75.0152 42.1353 75.093 42.2651 74.9165 42.1769C75.01 42.0938 74.7297 42.2495 74.7556 42.1094L75.0203 42.0367C74.9632 41.964 74.8075 42.0367 74.8231 41.9173C74.9321 41.7823 75.1397 42.0575 75.1605 41.8446C75.1605 41.7408 74.5272 41.6578 74.6414 41.4397C74.4961 41.2632 74.2313 41.5539 74.2884 41.2944L74.1223 41.4657C74.0444 41.4242 73.9095 41.4657 73.9614 41.3411C74.0652 41.3048 74.195 41.2269 74.2105 41.1698C74.0133 41.419 73.9043 40.957 73.6447 41.1698V41.0816C73.6366 41.0853 73.6277 41.0872 73.6188 41.0872C73.6098 41.0872 73.601 41.0853 73.5928 41.0816V40.9622C73.5357 41.0348 73.5098 41.2113 73.3125 41.1335L73.2606 40.957C73.1152 41.0037 73.053 40.957 72.9336 40.957C72.8401 41.1335 72.7467 41.31 72.6584 41.4761C72.7467 41.4761 72.8038 41.3723 72.892 41.393C72.9751 41.5332 72.7363 41.5176 72.892 41.6474L73.0062 41.5799C72.9647 41.5799 72.9491 41.611 72.9336 41.5799C72.918 41.5487 72.9336 41.5124 73.0166 41.5072C73.1672 41.5487 73.0737 41.6837 72.9751 41.7304C73.0062 41.8965 73.245 41.7304 73.2917 41.7823C73.0478 41.8862 73.3177 42.0575 73.2139 42.1717L73.3696 42.0886C73.5773 42.1976 73.4267 42.3222 73.3696 42.4001L73.4994 42.3585C73.4994 42.5402 73.951 42.5662 73.4994 42.7531H73.5876C73.6344 42.8153 73.7486 42.9088 73.6188 42.997C73.6759 42.997 73.7434 42.997 73.7641 42.997C73.5876 43.0593 73.7382 43.1112 73.7641 43.2099C73.8005 43.132 74.0393 43.1216 74.086 43.0386C74.3507 43.158 73.8472 43.2254 73.8731 43.3552C74.0029 43.4123 73.9873 43.2618 74.0756 43.2306C73.9821 43.4538 74.6829 43.5421 74.2417 43.7497L74.0756 43.6874C73.9925 43.7861 73.9977 43.8328 74.0444 43.812C74.0912 43.7913 74.0444 43.7757 74.1067 43.7549C74.3922 43.947 73.8368 44.2013 73.9873 44.4246C74.0704 44.3882 74.0912 44.3467 74.1638 44.3311C74.278 44.4194 73.7382 44.5388 73.9614 44.6789L74.0548 44.6218C74.1275 44.6685 73.9925 44.7464 73.9614 44.7464C74.3507 44.653 74.0341 45.1305 74.5791 45.1202C74.387 45.2655 74.2884 45.5614 74.4286 45.6029C74.6881 45.6444 74.657 45.4368 74.8854 45.416C74.9113 45.4939 74.7089 45.6029 74.8179 45.7067C74.6051 45.769 74.2988 45.5821 74.2573 45.8573H74.3819C74.3559 45.8573 74.304 45.8157 74.3248 45.769C74.4286 45.6652 74.4805 45.769 74.5428 45.769V46.0441C74.3196 46.1324 74.3248 45.9611 74.2677 45.9663C74.3715 46.1532 74.7868 46.2881 74.6933 46.5217L74.7712 46.4802C74.657 46.7761 75.2332 46.4802 74.9321 46.7865C75.0255 46.8643 75.1553 46.6671 75.228 46.7865C75.228 46.828 75.1501 46.8332 75.119 46.8384C75.119 47.046 75.3578 46.8384 75.2124 47.0823L75.4356 46.9578C75.3422 47.2121 75.01 47.5807 75.1761 47.7105C75.3526 47.6326 75.2955 47.534 75.4201 47.4405C75.1761 47.7987 75.5914 48.0063 75.5031 48.2867C75.3266 48.2867 75.1917 48.5358 74.984 48.4528C75.202 48.323 75.0255 48.3178 75.0203 48.2347C74.5583 48.5618 75.472 48.6293 75.0515 48.8525L75.2436 48.8058C75.2436 48.8525 75.1346 48.9926 75.0515 48.9615L75.2695 49.1432C75.3681 49.003 75.6017 48.6967 75.3889 48.7227C75.5498 48.5774 75.555 48.7642 75.7471 48.6137C75.5187 48.894 75.9132 48.6552 75.9184 48.8421C75.6277 48.8836 75.6433 49.1536 75.5135 49.2055C75.5862 49.2366 75.5135 49.4079 75.4564 49.4962C75.4564 49.6 75.7834 49.7142 75.7678 49.9062C75.8211 49.7752 75.9184 49.6669 76.043 49.6C75.9859 49.7194 76.043 49.7972 76.2247 49.7194C76.4427 49.2989 75.7523 49.844 75.8613 49.5013C75.9286 49.4596 75.9843 49.4016 76.0233 49.3326C76.0623 49.2637 76.0834 49.186 76.0845 49.1068C76.2056 49.0963 76.3237 49.0628 76.4323 49.0082C76.043 49.3664 76.5673 49.4079 76.4323 49.6986C76.3389 49.844 76.0274 49.927 76.0689 50.1295L75.8509 50.0412C76.0637 50.1554 75.7419 50.1502 75.7627 50.3163L75.8821 50.1866C75.9547 50.2592 75.9443 50.306 75.8821 50.4098L76.0689 50.2177C76.1208 50.254 76.1935 50.3215 76.0689 50.3942C76.1192 50.3801 76.1679 50.361 76.2143 50.3371C76.2056 50.3439 76.1987 50.3526 76.1939 50.3625C76.1891 50.3724 76.1866 50.3832 76.1866 50.3942C76.1866 50.4052 76.1891 50.416 76.1939 50.4259C76.1987 50.4358 76.2056 50.4445 76.2143 50.4513C76.2143 50.4098 76.2143 50.3942 76.261 50.3579C76.3181 50.5915 76.5309 50.28 76.5725 50.4202C76.5981 50.4016 76.629 50.3916 76.6607 50.3916C76.6924 50.3916 76.7233 50.4016 76.7489 50.4202C76.396 50.6018 76.4842 50.8822 76.3285 51.0535L76.2818 51.3026C76.2818 51.2507 76.4063 51.2403 76.4738 51.2663C76.5569 51.2663 76.8112 50.9912 76.8009 51.2092L76.7489 51.3545C76.7489 51.3545 76.8164 51.3182 76.8424 51.3078L76.8009 51.448C77.2006 51.3961 76.7645 51.8062 77.0189 51.8736C76.9618 51.8425 76.9462 51.7594 77.0656 51.7283C77.185 51.6971 77.1123 51.8062 77.0656 51.8581L77.1019 51.8269L77.0708 52.2526C77.1694 52.1539 77.0708 51.9878 77.2525 51.9826C77.4342 51.9775 77.32 52.1124 77.3407 52.1747C77.2473 52.2214 77.1071 52.1747 77.1227 52.2993C77.1746 52.2993 77.3252 52.2993 77.3615 52.2422C77.3612 52.4189 77.3313 52.5944 77.2732 52.7613C77.3303 52.7613 77.3355 52.6938 77.3407 52.673H77.3355C77.3355 52.5796 77.5536 52.5225 77.3874 52.4602C77.6729 52.2682 77.5795 52.5796 77.6833 52.6575L77.7768 52.3668C78.3478 52.3668 78.1609 53.026 78.3478 53.296C78.2076 53.296 78.244 53.1558 78.0311 53.296C78.0311 53.5348 78.0727 53.4777 78.1505 53.6801V53.6541C78.3218 53.6541 78.1972 53.9345 78.4308 53.8462C78.5243 53.7216 78.2284 53.8099 78.4672 53.6282L78.6021 53.8462C78.6956 53.6801 78.4672 53.6282 78.4464 53.5244C78.4256 53.4206 78.4983 53.6645 78.3166 53.7528C78.1869 53.5503 78.3166 53.3946 78.4724 53.1402C78.6281 52.8859 78.7008 53.0987 78.7319 53.1402C78.5658 53.4413 78.5814 53.7061 78.8357 53.8099L79.0901 53.7735C78.9967 53.9864 78.6489 54.1992 78.8202 54.3342L78.9084 54.1836C78.9863 54.1836 79.0226 54.1836 79.0382 54.1836C79.0745 54.0383 79.1264 53.8774 79.1783 53.732C79.5209 53.6126 79.251 54.1006 79.3081 54.2823C79.3341 54.2511 79.3081 54.194 79.3652 54.1265C79.5884 54.2719 79.4535 54.7443 79.5417 54.9363C79.713 54.9 79.5106 54.7391 79.7078 54.6249C79.7078 54.765 79.9362 54.7235 79.8013 54.8844C79.9933 54.6508 79.9777 55.0505 80.0504 54.7131C80.3982 54.9104 80.4761 55.3931 80.637 55.7876C80.6734 55.7209 80.7272 55.6653 80.7927 55.6267C80.731 55.5653 80.691 55.4855 80.6788 55.3993C80.6667 55.3131 80.683 55.2252 80.7253 55.1492C80.8914 55.1024 80.7253 55.4347 80.7979 55.3879C80.8706 55.3412 80.7616 55.2478 80.8654 55.1388C81.0575 55.1024 80.9329 55.3101 80.9692 55.3827H80.8862C80.8862 55.6942 80.6162 55.8447 80.8602 55.9693C81.0523 55.9018 80.964 55.8603 81.1146 55.6942C81.1146 55.8032 81.4053 55.7513 81.2911 55.9693L81.1665 55.8811C81.2028 56.0005 81.2807 56.068 81.2859 56.177C81.3127 56.1445 81.329 56.1047 81.3326 56.0628C81.3326 56.177 81.4468 56.2393 81.3845 56.3794L81.5558 56.2133C81.452 56.26 81.3222 56.1718 81.3897 56.0524C81.5402 55.907 81.5714 56.1043 81.6337 56.1406C81.452 55.8915 81.7012 55.6215 81.4157 55.5592V55.6423C81.1769 55.6423 81.2651 55.3412 81.1665 55.253C81.1964 55.248 81.2247 55.2359 81.249 55.2179C81.2734 55.1998 81.2931 55.1763 81.3066 55.1492C80.964 55.0713 80.8654 54.7598 80.5539 54.5885L80.6578 54.3549L80.5176 54.4691C80.3515 54.3965 80.6837 54.2719 80.6007 54.2044C80.6007 54.2355 80.6007 54.2459 80.5747 54.2823C80.6007 54.0071 80.3775 54.3134 80.3463 54.194C80.2373 54.3601 80.4346 54.3965 80.2113 54.5314C80.2113 54.2511 79.9518 54.0902 80.2684 53.7943C79.9051 53.6334 79.848 53.1143 79.7026 52.8547C79.6144 52.8547 79.6663 52.9066 79.6092 52.9326C79.7442 52.6886 79.2354 52.7146 79.4171 52.5796C79.3156 52.5909 79.2171 52.6208 79.1264 52.6679C79.1617 52.5617 79.1617 52.447 79.1264 52.3408V52.4343H79.0953V52.3045C79.0122 52.0709 78.8098 51.8684 78.8928 51.5518C78.8409 51.7387 78.6489 51.6712 78.6073 51.7698C78.6513 51.7242 78.6854 51.6699 78.7075 51.6105C78.7296 51.5511 78.7393 51.4878 78.7359 51.4245C78.7325 51.3612 78.7161 51.2993 78.6877 51.2426C78.6593 51.1859 78.6196 51.1357 78.571 51.095C78.5099 51.1189 78.4549 51.1561 78.4101 51.204L78.4724 51.0171L78.4049 51.0794C78.2284 50.9185 78.4516 50.5084 78.2336 50.4669C78.2336 50.5655 78.1765 50.6018 78.0778 50.6745C77.9824 50.5185 77.9337 50.3383 77.9377 50.1554C77.9239 50.1777 77.9041 50.1957 77.8806 50.2073C77.8339 50.1762 77.8806 50.0827 77.8806 50.0204L77.7197 50.0983C77.7197 49.9737 77.6055 49.9062 77.6781 49.7401C77.4861 49.7869 77.7145 49.4131 77.5795 49.33C77.5795 49.2678 77.4497 49.5221 77.3926 49.3871C77.73 49.2003 77.32 49.221 77.6885 49.0238L77.5016 48.9822L77.6729 48.868C77.2784 48.9459 77.7664 48.65 77.5899 48.567C77.5484 48.567 77.5432 48.6137 77.512 48.6189C77.4809 48.6241 77.512 48.4372 77.6418 48.4735C77.6055 48.4009 77.5795 48.1102 77.429 48.3126C77.5328 48.2555 77.4913 48.4009 77.4705 48.4632C77.3044 48.5358 77.32 48.3905 77.1279 48.4632L77.185 48.3957L77.0812 48.4268C77.1954 48.2036 77.0033 48.1154 77.1902 47.9077C77.1383 47.9077 77.0864 47.9077 77.076 47.861L77.2836 47.7727L77.2161 47.6222L76.9462 47.8195C76.8112 47.6793 77.1071 47.4198 77.1019 47.2588C76.7438 47.3627 77.1019 46.9422 76.7749 46.9474L76.723 47.0875C76.723 46.8332 76.4686 46.8747 76.5102 46.6152C76.6535 46.7642 76.832 46.8749 77.0293 46.937C76.7801 46.7294 77.0552 46.4179 76.7645 46.2362C76.6867 46.2829 76.6555 46.366 76.5465 46.3348C76.7126 46.2258 76.4583 46.1064 76.6867 46.0701C76.588 46.0182 76.3856 46.0701 76.3389 46.0338L76.5154 45.6912H76.479C75.8353 45.4005 76.5621 44.7724 76.235 44.3986L76.1208 44.4349L76.2662 44.2844C76.1727 44.3986 76.1105 44.2844 76.0066 44.2844L76.1935 43.9366C76.0741 44.1287 75.8457 44.1962 75.908 44.2584ZM77.0448 48.0012V48.0686C77.0448 48.0686 77.0708 48.0686 77.0448 48.1154V48.0686C77.0189 48.0479 76.9203 48.0634 77.0448 48.0012ZM80.0297 53.8462C79.9726 53.9397 79.9777 53.8462 79.9518 53.8462L80.0037 53.9552C80.0608 53.9033 80.0297 53.8722 80.0297 53.8462ZM75.7159 48.5722H75.5602L75.6485 48.4787L75.7159 48.5722ZM75.3059 47.5911L75.2643 47.7208H75.2591L75.3007 47.5963L75.3059 47.5911ZM76.0585 46.0961C76.06 46.1064 76.06 46.1169 76.0585 46.1272V46.0961C76.1416 45.9922 75.8717 46.0441 76.1001 45.904C76.3389 45.9092 76.1364 46.0286 76.0585 46.0961ZM76.6815 47.7676C76.6815 47.8143 76.6815 47.8298 76.6815 47.8506C76.6815 47.8714 76.858 47.6845 76.9047 47.7208C76.8216 47.7883 76.8424 47.9077 76.7022 47.9648C76.8164 47.8143 76.396 47.9077 76.6815 47.7624V47.7676ZM77.6055 49.9841H77.5795L77.5172 50.1191L77.6055 49.9841ZM77.6781 50.4409C77.5328 50.5759 77.6262 50.6797 77.6366 50.7835C77.7923 50.7212 77.9117 50.5447 77.8442 50.4617C77.9117 50.28 77.5951 50.5396 77.6781 50.4409ZM76.1208 47.1446L76.0014 47.2173L75.9547 47.3419C75.7367 47.2796 76.0222 47.0668 76.0534 46.9837C76.043 47.0304 75.7782 47.3004 76.126 47.1446H76.1208ZM78.0519 51.2974C78 51.4376 77.9688 51.6608 77.8442 51.7179C78.0623 51.5881 78.0934 51.4116 78.0675 51.3753C78.0415 51.339 78.0519 51.339 78.0571 51.2974H78.0519ZM77.6418 51.5414C77.6678 51.3597 77.7664 51.2922 77.9169 51.0846C78.0778 51.1469 77.8183 51.339 77.6937 51.3961C77.6418 51.5414 77.7716 51.4376 77.8235 51.4635L77.6418 51.5414ZM78.1609 51.0535L78.1038 51.0223C77.9792 51.0223 77.7249 51.1521 77.9273 50.9289L78.1038 51.0223C78.1557 51.0223 78.1817 51.0327 78.1869 51.0535H78.1609ZM78.7475 52.0242L78.789 51.9307C78.789 51.9775 78.789 52.0034 78.7475 52.0242L78.7111 52.102C78.5917 52.0501 78.7008 52.0553 78.7734 52.0242H78.7475ZM78.2284 51.3286L78.1661 51.178C78.0986 51.2455 78.2024 51.2974 78.2543 51.3286H78.2284ZM78.5398 52.1124C78.4839 52.0644 78.4334 52.0105 78.3893 51.9515C78.5347 51.9152 78.6021 52.0397 78.5658 52.1124H78.5398ZM80.4449 55.1388L80.3826 55.0505L80.5488 54.9675L80.4449 55.1388ZM79.5469 54.3186L79.63 54.2823L79.6611 54.3394L79.5469 54.3186ZM78.8928 53.4725C78.9324 53.4539 78.9664 53.4253 78.9915 53.3894C78.9982 53.3617 79.0126 53.3365 79.033 53.3167C79.033 53.3167 79.033 53.3583 78.9915 53.3894C78.9911 53.4036 78.994 53.4178 78.9999 53.4307C79.0059 53.4436 79.0147 53.4551 79.0257 53.4641C79.0367 53.4731 79.0497 53.4795 79.0635 53.4827C79.0774 53.486 79.0918 53.486 79.1057 53.4828C79.168 53.4154 79.1057 53.3686 79.1472 53.3115C79.3704 53.2648 79.0018 53.8306 79.4483 53.4102C79.4171 53.488 79.3756 53.7009 79.2614 53.7268C79.2254 53.6575 79.173 53.5981 79.1088 53.5538C79.0445 53.5094 78.9704 53.4815 78.8928 53.4725C78.8617 53.4725 78.8357 53.4725 78.8202 53.4725C78.8441 53.4671 78.8689 53.4671 78.8928 53.4725ZM77.9325 52.3045C77.9266 52.2905 77.9236 52.2755 77.9236 52.2604C77.9236 52.2452 77.9266 52.2302 77.9325 52.2162C77.9435 52.1825 77.9617 52.1515 77.9859 52.1255C78.0101 52.0995 78.0397 52.0791 78.0727 52.0657C78.0727 52.1799 77.9688 52.1695 77.9325 52.2162C77.9222 52.2354 77.9168 52.2568 77.9169 52.2785L77.9325 52.3045ZM77.756 52.0968L77.73 52.2733L77.8079 52.1436L77.7093 52.455C77.5276 52.3927 77.6107 52.1695 77.7404 52.0709L77.756 52.0968ZM77.6314 52.0968L77.7404 51.993L77.6366 52.1124L77.5847 51.8684L77.6314 52.0968ZM76.7022 49.8388C76.2143 49.9841 76.479 50.1866 76.2818 50.3579C76.4375 50.2904 76.7126 50.2489 76.6036 50.0464C76.8424 50.145 76.37 50.306 76.7957 50.2177C76.723 50.1502 76.7957 49.9893 76.7957 49.9685L76.8631 50.0568C77.1123 49.8388 76.6451 49.9737 76.7022 49.8388ZM76.126 48.8006L76.0741 48.6604V48.8058L76.126 48.8006ZM74.74 45.4524C74.6258 45.4939 74.3715 45.3641 74.5739 45.2603C74.6518 45.3486 74.6622 45.4524 74.74 45.4524ZM74.4026 43.9262L74.3403 44.1079C74.0704 44.1079 74.3403 43.9574 74.2625 43.8899C74.4078 43.838 74.3299 43.9158 74.4234 43.9262H74.4026ZM74.2261 42.888L74.2625 42.8309L74.0029 42.9192L74.2261 42.888ZM73.8835 43.0074C73.8646 43.0041 73.8452 43.0052 73.8268 43.0107C73.8084 43.0162 73.7915 43.0258 73.7774 43.0389C73.7633 43.0519 73.7524 43.0681 73.7456 43.086C73.7388 43.104 73.7363 43.1233 73.7382 43.1424L73.8835 43.0074ZM73.5409 42.0419V42.1094L73.7745 42.0263L73.5409 42.0419ZM73.8264 42.1301C73.6603 42.1613 73.4267 42.1769 73.5565 42.3326C73.6846 42.3034 73.8177 42.3034 73.9458 42.3326C73.9873 42.2755 73.9043 42.2391 73.8887 42.2132C73.8731 42.1872 73.9406 42.2859 73.8264 42.3066C73.8109 42.2996 73.7978 42.2883 73.7886 42.2741C73.7793 42.2598 73.7744 42.2432 73.7744 42.2262C73.7744 42.2092 73.7793 42.1925 73.7886 42.1783C73.7978 42.164 73.8109 42.1527 73.8264 42.1457C73.876 42.1407 73.9239 42.1247 73.9666 42.099C73.9269 42.0921 73.8861 42.0939 73.8472 42.1042L73.8264 42.1301ZM74.0756 42.696C74.1007 42.7133 74.1289 42.7256 74.1586 42.7323H74.1119C74.0341 42.7323 74.0496 42.696 74.0756 42.6804C74.0488 42.6588 74.0245 42.6344 74.0029 42.6077C73.8524 42.6077 73.7641 42.7323 73.6811 42.7738C73.7174 42.7115 73.8576 42.6492 73.7589 42.5921C73.6603 42.535 73.6863 42.5921 73.6915 42.644L73.6499 42.5506C73.8472 42.4156 73.9199 42.5143 74.0029 42.6077C74.0389 42.6008 74.0759 42.6008 74.1119 42.6077C74.1119 42.6077 74.1223 42.6492 74.0963 42.67L74.0756 42.696ZM74.3351 41.9017L74.2988 41.9588C74.2417 41.99 74.1794 41.9588 74.1327 41.99C74.1302 41.9631 74.1358 41.9361 74.1488 41.9124C74.1618 41.8888 74.1816 41.8695 74.2056 41.8572C74.2296 41.8449 74.2568 41.8401 74.2836 41.8434C74.3104 41.8467 74.3356 41.858 74.3559 41.8758L74.3351 41.9017ZM74.901 44.9229C74.849 44.9229 74.6933 45.0215 74.7608 45.0838H74.5324C74.6777 45.0475 74.6206 44.8969 74.631 44.8814C74.8439 44.7931 74.7764 44.871 74.9217 44.8969L74.901 44.9229ZM76.0741 48.2815C75.825 48.4164 76.0741 48.5306 76.0066 48.6033C75.908 48.5254 75.7782 48.3386 76.0741 48.2815ZM76.3129 48.5462C76.3129 48.5981 76.3596 48.6033 76.2298 48.6552C76.1831 48.7019 76.2714 48.7071 76.2298 48.759C76.0689 48.7123 76.2818 48.6241 76.3129 48.5462C76.3089 48.5291 76.3089 48.5114 76.3129 48.4943C76.3156 48.5027 76.3156 48.5118 76.3128 48.5202C76.31 48.5286 76.3046 48.5359 76.2973 48.541L76.3129 48.5462ZM75.5758 46.6048L75.7471 46.4698L75.6952 46.3712L75.5758 46.6048ZM75.5758 45.3693C75.4616 45.4108 75.4252 45.2915 75.4772 45.2499C75.3266 45.2966 75.3681 45.3745 75.3733 45.442C75.3696 45.4501 75.3677 45.459 75.3677 45.4679C75.3677 45.4769 75.3696 45.4858 75.3733 45.4939C75.3789 45.477 75.3789 45.4588 75.3733 45.442C75.3993 45.4108 75.4823 45.4057 75.5343 45.3901H75.5862V45.2863L75.5758 45.3693ZM75.2799 43.3448C75.1449 43.2981 75.1865 43.2773 75.2228 43.2254C75.2341 43.2288 75.2444 43.235 75.2528 43.2432C75.2612 43.2515 75.2675 43.2617 75.271 43.273C75.2746 43.2842 75.2754 43.2962 75.2733 43.3078C75.2712 43.3194 75.2664 43.3303 75.2591 43.3396L75.2799 43.3448ZM75.8821 45.9403C75.773 45.8469 75.6744 46.0701 75.5758 46.013L75.6121 46.0753C75.4201 46.0182 75.7627 45.9455 75.69 45.8884L75.7367 45.9248C75.8924 45.9248 75.8146 45.8209 75.9236 45.7794C76.0014 45.7898 75.9288 45.9507 75.8821 45.9144V45.9403ZM75.363 43.2358C75.1916 43.1424 75.5031 43.1112 75.5239 43.0386C75.664 43.0905 75.3837 43.0905 75.3578 43.2099L75.363 43.2358ZM76.1053 45.063H76.1364L76.1935 44.9488H76.1624L76.1053 45.063Z" fill="white"/>
<path d="M73.7791 43.3137C73.7791 43.2826 73.7531 43.2618 73.7791 43.241C73.7874 43.2645 73.7874 43.2902 73.7791 43.3137Z" fill="#231F20"/>
<path d="M75.4665 49.2626C75.4788 49.2573 75.492 49.2546 75.5054 49.2546C75.5188 49.2546 75.532 49.2573 75.5443 49.2626C75.519 49.2706 75.4918 49.2706 75.4665 49.2626Z" fill="white"/>
<path d="M75.4822 49.5428L75.4873 49.5479L75.4771 49.5632L75.4822 49.5428Z" fill="white"/>
<path d="M81.0473 56.5248C80.9591 56.7065 80.985 56.5248 80.9539 56.4832C80.9228 56.4417 81.0889 56.4261 81.0473 56.5248Z" fill="white"/>
<path d="M81.0103 56.068C81.0001 56.0927 80.9948 56.1191 80.9948 56.1459C80.9948 56.1726 81.0001 56.1991 81.0103 56.2237C80.9688 56.1978 80.9688 56.1614 81.0103 56.068Z" fill="white"/>
<path d="M81.1611 56.3068C81.1303 56.3044 81.1006 56.2947 81.0744 56.2784C81.0482 56.2622 81.0263 56.2398 81.0105 56.2133C81.0521 56.2341 81.1247 56.2081 81.1611 56.3068Z" fill="white"/>
<path d="M80.3201 55.4503C80.3124 55.4643 80.3082 55.4799 80.3076 55.4958C80.307 55.5118 80.3101 55.5276 80.3166 55.5422C80.3231 55.5568 80.3329 55.5696 80.3452 55.5798C80.3575 55.59 80.372 55.5971 80.3875 55.6008C80.1488 55.5177 80.2578 55.7877 80.211 55.8655C80.1384 55.7358 80.2474 55.6319 80.3201 55.4503Z" fill="white"/>
<path d="M80.1593 55.1907C80.1737 55.2079 80.1941 55.2191 80.2164 55.2218C80.1801 55.227 80.1645 55.2114 80.1593 55.1907Z" fill="white"/>
<path d="M80.0197 55.2063C79.9885 55.1284 80.0664 55.0194 80.1183 54.926C80.2533 54.926 80.1183 55.118 80.1598 55.1907C80.1235 55.1544 80.0975 55.1025 80.0197 55.2063Z" fill="white"/>
<path d="M77.9842 53.7113C77.9842 53.7372 78.0102 53.7684 77.9531 53.8151L77.87 53.7061C77.8544 53.6386 77.9583 53.7009 77.9842 53.7113Z" fill="white"/>
<path d="M78 53.1039C77.9533 53.0053 77.8235 53.161 77.8287 53.1039L78.0415 52.9637L78 53.1039Z" fill="white"/>
<path d="M79.0947 52.4239L79.0896 52.4594L79.0744 52.429L79.0947 52.4239Z" fill="white"/>
<path d="M77.507 52.8184L77.3149 53.0313C77.3294 52.9839 77.354 52.9402 77.3872 52.9034C77.4204 52.8666 77.4613 52.8376 77.507 52.8184Z" fill="white"/>
<path d="M77.1283 52.5796L77.0868 52.6782L77.0557 52.4654L77.1283 52.5796Z" fill="white"/>
<path d="M76.9873 52.0864L76.925 52.102L76.9146 51.9515L76.9873 52.0864Z" fill="white"/>
<path d="M74.9265 47.2018C75.1445 47.1031 75.1238 47.3315 75.2016 47.3679C74.9057 47.4354 75.2587 47.1758 74.9265 47.2018Z" fill="white"/>
<path d="M73.9201 43.4746V43.6874C73.7799 43.5473 73.8941 43.6459 73.9201 43.4746Z" fill="#231F20"/>
<path d="M75.2591 52.7769C75.2313 52.7579 75.2087 52.7323 75.1933 52.7024C75.1779 52.6725 75.1702 52.6392 75.1709 52.6056C75.1968 52.6264 75.3526 52.6264 75.2591 52.7769Z" fill="white"/>
<path d="M75.3629 52.3616V52.4343C75.3058 52.4343 75.3733 52.3928 75.3629 52.3616Z" fill="white"/>
<path d="M75.2541 52.5018L75.2022 52.5485L75.2281 52.4758L75.2541 52.5018Z" fill="white"/>
<path d="M72.9492 50.1814C72.9212 50.2039 72.8896 50.2214 72.8558 50.2333L72.9492 50.1814Z" fill="white"/>
<path d="M74.0492 51.6038C74.0225 51.6438 73.9983 51.6854 73.9765 51.7283C73.9038 51.718 74.0025 51.6505 74.0492 51.6038Z" fill="white"/>
<path d="M73.8574 48.9252H73.8003C73.8003 48.9252 73.847 48.9096 73.8574 48.9252Z" fill="white"/>
<path d="M73.182 50.3578V50.3934C73.182 50.3934 73.1515 50.3578 73.182 50.3578Z" fill="white"/>
<path d="M73.8573 48.7175L73.9611 48.65C73.9334 48.6816 73.8975 48.705 73.8573 48.7175Z" fill="white"/>
<path d="M74.0389 49.709C74.0389 49.709 74.0389 49.709 74.0389 49.6675C74.0389 49.626 74.0597 49.6934 74.0389 49.709Z" fill="white"/>
<path d="M74.0496 51.6028L74.075 51.5622C74.075 51.5622 74.0649 51.5876 74.0496 51.6028Z" fill="white"/>
<path d="M74.9479 52.5537C74.9479 52.5537 74.9479 52.507 74.9842 52.4758C74.9767 52.5037 74.9644 52.53 74.9479 52.5537Z" fill="white"/>
<path d="M73.3386 47.1291C73.2451 47.1291 73.3957 47.0149 73.3957 46.9786L73.3334 47.0045L73.3801 46.9526H73.2815C73.3126 46.8747 73.1932 46.8176 73.3438 46.7605L73.188 46.8021L73.2971 46.7086L73.2036 46.7657C73.1517 46.6931 73.2503 46.5581 73.2503 46.5425H73.1932C73.1569 46.5425 73.1932 46.5425 73.1932 46.501H73.105C73.105 46.3816 72.9077 46.3816 72.9804 46.2414C72.9544 46.2051 72.9544 46.2414 72.9077 46.2414C72.861 46.2414 72.9077 46.1791 72.9337 46.1636C72.7987 46.1895 72.8454 46.2414 72.7312 46.2155C72.7935 46.174 72.6066 46.2518 72.6274 46.2155L72.7987 46.174C72.7676 46.174 72.6586 46.174 72.6741 46.1376C72.6897 46.1013 72.8818 46.1791 72.8973 46.0961C72.9129 46.013 72.4769 46.039 72.5703 45.9456C72.4717 45.8781 72.2952 46.0027 72.3367 45.8936L72.2225 45.9663C72.1706 45.9663 72.0824 45.9663 72.1187 45.9196C72.155 45.8729 72.2744 45.8677 72.2796 45.8417C72.1498 45.9507 72.0772 45.7535 71.9059 45.8417V45.8002H71.8695V45.7483C71.828 45.7794 71.8176 45.8573 71.6827 45.8262L71.6515 45.7431C71.5529 45.7431 71.5114 45.7431 71.4335 45.7431C71.3556 45.7431 71.3089 45.9144 71.2466 46.0027C71.3089 46.0027 71.3452 45.9507 71.4023 45.9611C71.4594 45.9715 71.2985 46.0182 71.4023 46.0753L71.475 46.0442C71.475 46.0442 71.4387 46.0442 71.4283 46.0442C71.4179 46.0442 71.4283 46.013 71.4854 46.0078C71.5425 46.0027 71.5217 46.0857 71.4542 46.1117C71.4542 46.1843 71.6359 46.1117 71.6671 46.1117C71.501 46.1636 71.6671 46.2311 71.61 46.283L71.7138 46.2466C71.854 46.283 71.7501 46.3453 71.7138 46.3816H71.7969C71.7969 46.4595 72.0927 46.4543 71.7969 46.5581H71.854C71.8851 46.5581 71.9578 46.6204 71.854 46.6619C71.8863 46.6533 71.9203 46.6533 71.9526 46.6619C71.8332 46.6982 71.9526 46.7138 71.9526 46.7502C71.9526 46.7865 72.1395 46.6982 72.1706 46.6619C72.3419 46.6982 72.0045 46.7553 72.0201 46.8073C72.0356 46.8592 72.0979 46.7657 72.155 46.745C72.0876 46.8488 72.5496 46.8436 72.2537 46.963H72.1447C72.0824 47.0097 72.0876 47.0305 72.1187 47.0149C72.1498 46.9993 72.1187 47.0149 72.1602 47.0149C72.3419 47.0772 71.9682 47.2225 72.0564 47.3108L72.1758 47.2589C72.2485 47.29 71.8903 47.3783 72.0253 47.425L72.0876 47.3938C72.1343 47.3938 72.046 47.4509 72.0253 47.4561C72.2848 47.3887 72.0253 47.6171 72.4042 47.5807C72.2744 47.6534 72.1914 47.7935 72.2796 47.7987C72.4457 47.7987 72.4405 47.7105 72.5859 47.6897C72.5859 47.7209 72.4613 47.7832 72.5236 47.8195C72.3834 47.861 72.2069 47.8195 72.1498 47.9233H72.2329C72.2329 47.9233 72.1862 47.9233 72.2018 47.887C72.2173 47.8506 72.3004 47.887 72.3419 47.887V48.0064C72.1914 48.0635 72.2069 48.0064 72.1654 48.0064C72.2277 48.0842 72.4821 48.1154 72.4042 48.2244L72.4561 48.1984C72.3627 48.3438 72.752 48.1984 72.534 48.3282C72.5911 48.3542 72.6897 48.2607 72.726 48.3282C72.7624 48.3957 72.6689 48.3282 72.6482 48.3594C72.6482 48.4528 72.8039 48.3594 72.6897 48.4632L72.8454 48.3905C72.7624 48.5099 72.5132 48.6968 72.6118 48.7487C72.7312 48.702 72.7001 48.6604 72.7883 48.6085C72.6015 48.785 72.8454 48.8525 72.7624 48.9875C72.6482 48.9875 72.5392 49.1172 72.4302 49.0913C72.5807 49.0186 72.4665 49.029 72.4769 48.9927C72.1498 49.1692 72.7209 49.1432 72.4302 49.273L72.5547 49.2366C72.5547 49.2366 72.4665 49.3301 72.4198 49.3197L72.534 49.3924C72.6118 49.3197 72.7935 49.164 72.6534 49.1899C72.7728 49.1121 72.7572 49.1899 72.8922 49.1173C72.7209 49.2626 72.996 49.1173 72.9804 49.2107C72.7935 49.247 72.7676 49.3716 72.6845 49.4028C72.726 49.4028 72.6845 49.4962 72.6118 49.5377C72.5392 49.5792 72.7935 49.6208 72.7572 49.709C72.8158 49.6408 72.8884 49.5859 72.97 49.5481C72.9181 49.6052 72.9389 49.6415 73.0686 49.5948C73.2555 49.3872 72.7572 49.6831 72.8662 49.517C73.0012 49.4339 73.0271 49.3924 73.0531 49.3197C73.1314 49.3054 73.208 49.2828 73.2815 49.2522C72.996 49.4443 73.3178 49.4287 73.1984 49.5741C73.1258 49.6415 72.9181 49.6986 72.9181 49.7921L72.7987 49.7661C72.9129 49.8025 72.7157 49.8232 72.7053 49.9011L72.7987 49.8336C72.8299 49.8336 72.7987 49.8803 72.7572 49.9374L72.8973 49.8388C72.8973 49.8388 72.9596 49.8803 72.8714 49.9167L72.9648 49.8855C72.9648 49.8855 72.9337 49.9167 72.9648 49.9374C72.996 49.9582 72.9648 49.9115 73.0064 49.8907C73.0064 49.9945 73.1829 49.8388 73.1932 49.8907C73.2101 49.8821 73.2288 49.8775 73.2477 49.8775C73.2667 49.8775 73.2854 49.8821 73.3022 49.8907C73.0583 49.9997 73.079 50.1243 72.9596 50.2126L72.9025 50.3319C72.9025 50.3319 72.9856 50.2956 73.0219 50.3319C73.0738 50.3319 73.2711 50.1814 73.2348 50.2852L73.1829 50.3579C73.1829 50.3579 73.2244 50.3579 73.2451 50.3268L73.1829 50.3579C73.4372 50.3112 73.1154 50.5292 73.2555 50.5448C73.2555 50.5448 73.2555 50.4981 73.3074 50.4721C73.3593 50.4461 73.3074 50.5084 73.3074 50.5344H73.3334L73.2503 50.7368C73.323 50.6849 73.2919 50.6123 73.4009 50.5967C73.5099 50.5811 73.4009 50.659 73.4009 50.6849C73.4009 50.7109 73.2607 50.6849 73.2503 50.7576C73.24 50.8303 73.3697 50.7576 73.4009 50.7161C73.3726 50.8093 73.3287 50.8971 73.2711 50.9756C73.3022 50.9756 73.3178 50.9393 73.323 50.9289C73.323 50.8874 73.4787 50.8407 73.3905 50.8251C73.5877 50.7109 73.4839 50.8718 73.5358 50.8978L73.6345 50.7576C73.9771 50.7265 73.7642 51.0483 73.8317 51.1729C73.7487 51.1729 73.7902 51.1106 73.6397 51.204C73.6085 51.3182 73.6397 51.2923 73.6397 51.3857C73.7435 51.3857 73.6397 51.5207 73.7746 51.4636C73.9096 51.4065 73.6656 51.4636 73.8369 51.3546L73.8784 51.4532C73.9615 51.365 73.8369 51.3546 73.8369 51.3027C73.8369 51.2507 73.8369 51.3701 73.7227 51.4221C73.676 51.3286 73.7798 51.2456 73.9148 51.1106C74.0498 50.9756 74.0601 51.0794 74.0705 51.1106C73.92 51.2663 73.8888 51.3961 74.0186 51.4324L74.1743 51.4013C74.0861 51.5155 73.8473 51.6401 73.92 51.6972L73.9978 51.6141C74.0446 51.6141 74.0653 51.6141 74.0705 51.6141L74.2314 51.3805C74.4495 51.3027 74.2055 51.5622 74.2314 51.6505C74.2314 51.6505 74.2314 51.6037 74.2937 51.5674C74.3975 51.6297 74.2314 51.8789 74.2522 51.9671C74.356 51.9671 74.2522 51.8737 74.4027 51.801C74.4027 51.8737 74.5169 51.8373 74.4027 51.9256C74.5533 51.7958 74.4754 52.0034 74.574 51.827C74.735 51.9048 74.6934 52.1488 74.7142 52.3461C74.7469 52.3089 74.7855 52.2773 74.8284 52.2526C74.7921 52.2111 74.7869 52.1176 74.8751 52.0086C74.9634 51.8996 74.818 52.154 74.8751 52.128C74.9322 52.1021 74.8751 52.0554 74.953 51.9931C75.0308 51.9308 74.953 52.0761 74.953 52.1125H74.9011C74.8595 52.2734 74.6727 52.372 74.7869 52.4239C74.9011 52.3772 74.8595 52.3564 74.9737 52.263C74.9426 52.3201 75.1191 52.263 75.0205 52.398L74.9686 52.3564C74.9686 52.4187 74.9945 52.4499 74.9686 52.507C74.9878 52.4893 75.0037 52.4681 75.0153 52.4447C75.0153 52.5018 75.0464 52.5277 74.9841 52.6108L75.1087 52.507C75.0412 52.5433 74.9893 52.507 75.0464 52.4343C75.1035 52.3616 75.1347 52.4343 75.1606 52.4343C75.1087 52.3149 75.2904 52.1488 75.1606 52.1436L75.1347 52.1851C75.0049 52.2163 75.1347 52.0346 75.0724 51.9983C75.1114 51.9865 75.1459 51.9629 75.171 51.9308C74.9997 51.9308 74.9997 51.7647 74.8544 51.6972L74.9582 51.5674L74.8595 51.6401C74.7765 51.6401 74.9893 51.5259 74.953 51.4999C74.9166 51.474 74.953 51.4999 74.9218 51.5414C74.9893 51.3961 74.8076 51.5414 74.8128 51.5103C74.7194 51.5985 74.8128 51.6089 74.6727 51.692C74.735 51.5466 74.6052 51.4843 74.8388 51.313C74.6623 51.2559 74.7142 51.0016 74.6727 50.8874C74.6208 50.8874 74.6467 50.8874 74.6104 50.9289C74.7246 50.8043 74.4235 50.8459 74.5533 50.7732C74.4887 50.7835 74.4258 50.8027 74.3664 50.8303C74.4034 50.7848 74.4236 50.728 74.4235 50.6694V50.7161L74.4546 50.6486C74.4546 50.5448 74.356 50.4565 74.4546 50.3008C74.3924 50.3942 74.2885 50.3735 74.247 50.4254C74.4339 50.2696 74.3872 50.171 74.3249 50.1035C74.2846 50.12 74.2463 50.1409 74.2107 50.1658L74.2782 50.0724L74.2262 50.1087C74.1432 50.0412 74.3404 49.8336 74.2262 49.8284C74.2262 49.8751 74.1743 49.8959 74.1017 49.9322C74.0741 49.8604 74.0741 49.7809 74.1017 49.709H74.0601C74.0601 49.709 74.0601 49.6571 74.0913 49.6208L73.9823 49.6727C74.0186 49.6104 73.9407 49.5896 74.0082 49.5066C73.8784 49.5429 74.0705 49.3508 74.0082 49.3249C74.0082 49.2937 73.8992 49.4183 73.8836 49.3612C74.1172 49.2522 73.8577 49.2886 74.112 49.1744H74.003L74.1224 49.1069C73.8681 49.1692 74.2055 49.003 74.1224 48.9719L74.0705 49.003C74.0705 48.9719 74.0705 48.9252 74.1639 48.9304C74.1639 48.8992 74.1639 48.7643 74.0497 48.8681C74.1224 48.8369 74.0757 48.9044 74.0497 48.9356C73.9355 48.9771 73.9615 48.9356 73.8369 48.9356L73.8784 48.9044H73.811C73.9096 48.7954 73.811 48.7695 73.9355 48.6656C73.8992 48.6656 73.8681 48.6656 73.8681 48.6656L74.0082 48.6137L73.9823 48.5514L73.7902 48.6553C73.7227 48.6033 73.9355 48.4632 73.9459 48.3957C73.7071 48.4632 73.9927 48.2504 73.7694 48.2711L73.7227 48.3438C73.7227 48.2296 73.5826 48.2607 73.6293 48.1413C73.7139 48.2052 73.8145 48.2447 73.92 48.2555C73.785 48.1777 73.9875 48.0168 73.8162 47.9597C73.7642 47.9597 73.7331 48.0219 73.6708 48.0168C73.785 47.9597 73.6293 47.9233 73.7798 47.8922C73.7175 47.8922 73.5826 47.8922 73.5618 47.8922L73.702 47.7313H73.6708C73.2815 47.6482 73.7954 47.3212 73.6033 47.181H73.5255L73.6293 47.1031C73.5618 47.1602 73.5255 47.1031 73.458 47.1291L73.5981 46.9682C73.4528 47.0616 73.2971 47.1083 73.3386 47.1291ZM73.7694 48.6864V48.7175C73.7694 48.7175 73.702 48.7435 73.7694 48.7072V48.6864ZM74.7402 51.2819C74.6882 51.3338 74.709 51.2819 74.6934 51.2819V51.3286C74.7402 51.313 74.7402 51.3027 74.7402 51.2871V51.2819ZM72.8714 49.0498H72.7728L72.8351 48.9979L72.8714 49.0498ZM72.7105 48.6345L72.6689 48.6916L72.7105 48.6293V48.6345ZM73.3178 47.9181C73.3749 47.8662 73.2036 47.9181 73.3593 47.8247C73.5151 47.7313 73.3697 47.887 73.3178 47.9233V47.9181ZM73.5618 48.6189C73.5618 48.6189 73.5618 48.6501 73.5618 48.6553C73.5618 48.6604 73.6864 48.5722 73.7175 48.5826C73.6552 48.6241 73.6552 48.676 73.5618 48.7124C73.6448 48.6397 73.3697 48.7072 73.5618 48.6241V48.6189ZM73.8836 49.7869C73.7798 49.8596 73.8213 49.9011 73.811 49.9478C73.9148 49.9115 74.0134 49.8232 73.9823 49.7869C74.0342 49.6986 73.8058 49.8388 73.8681 49.7921L73.8836 49.7869ZM73.2867 48.3801L73.2036 48.4165L73.1621 48.4736C73.0271 48.4736 73.2296 48.349 73.2555 48.3075C73.2815 48.2659 73.0479 48.4736 73.2711 48.3853L73.2867 48.3801ZM73.9978 50.1658C73.9459 50.2385 73.8888 50.3423 73.8058 50.3787C73.9615 50.306 74.003 50.2177 73.9978 50.2022C73.9927 50.1866 73.9719 50.1918 73.9823 50.171L73.9978 50.1658ZM73.7123 50.306C73.7539 50.2229 73.8213 50.1814 73.9459 50.0724C74.0342 50.0724 73.8473 50.2022 73.7642 50.2385C73.6812 50.2748 73.8058 50.2385 73.8317 50.2385L73.7123 50.306ZM74.112 50.0412H74.0809C74.003 50.0412 73.8317 50.1243 73.9875 50.0101L74.0809 50.0412C74.0809 50.0412 74.0965 50.0361 74.0965 50.0464L74.112 50.0412ZM74.3197 50.4669L74.3612 50.4202C74.3612 50.4202 74.3612 50.4565 74.3197 50.4669L74.2833 50.5084C74.1899 50.4981 74.2574 50.4929 74.3041 50.4721L74.3197 50.4669ZM74.112 50.1658V50.1035C74.0134 50.1451 74.0705 50.1658 74.0965 50.171L74.112 50.1658ZM74.1795 50.524C74.1795 50.524 74.1017 50.4513 74.1172 50.4565C74.1328 50.4617 74.2211 50.4929 74.1639 50.5292L74.1795 50.524ZM74.7402 51.9152V51.8789L74.8492 51.8218L74.7402 51.9152ZM74.1172 51.1625C74.1433 51.15 74.1677 51.1343 74.1899 51.1158C74.1986 51.0993 74.2111 51.0851 74.2262 51.0743C74.2262 51.0743 74.2262 51.0743 74.1899 51.1158C74.1536 51.1573 74.1899 51.1625 74.2418 51.1521C74.2937 51.1417 74.2678 51.095 74.2937 51.0691C74.4339 51.0275 74.1224 51.3286 74.4546 51.0691C74.4235 51.1106 74.3664 51.2196 74.2937 51.2404C74.2937 51.1833 74.2055 51.1314 74.1172 51.1365C74.029 51.1417 74.0809 51.1365 74.0757 51.1365L74.1172 51.1625ZM73.7331 50.6434C73.7302 50.6369 73.7288 50.6298 73.7288 50.6226C73.7288 50.6155 73.7302 50.6084 73.7331 50.6019C73.7632 50.5668 73.8003 50.5385 73.8421 50.5188C73.8162 50.5759 73.7642 50.5759 73.7331 50.6019C73.7334 50.6187 73.7389 50.635 73.7487 50.6486L73.7331 50.6434ZM73.6604 50.5552L73.6189 50.6434L73.6812 50.5759L73.5774 50.7317C73.4943 50.7265 73.5826 50.6174 73.702 50.5603L73.6604 50.5552ZM73.5826 50.5552L73.6604 50.5032L73.5826 50.5655V50.4513V50.5552ZM73.3282 49.5637C73.0064 49.6623 73.1413 49.735 73.0012 49.818C73.105 49.7765 73.2815 49.7402 73.24 49.6571C73.3749 49.6883 73.0635 49.7921 73.3386 49.7246C73.3022 49.6934 73.3386 49.6156 73.3697 49.6052L73.4009 49.6415C73.5929 49.5585 73.2919 49.6415 73.3438 49.5844L73.3282 49.5637ZM72.508 47.7001C72.4302 47.7001 72.2744 47.7001 72.4094 47.6274C72.4561 47.6845 72.4613 47.7261 72.5236 47.7209L72.508 47.7001ZM72.3679 47.0564L72.316 47.1395C72.1395 47.1395 72.316 47.0772 72.2744 47.0512C72.3731 47.0409 72.3212 47.0824 72.3834 47.0772L72.3679 47.0564ZM72.2796 46.61H72.3056L72.1343 46.6619L72.2796 46.61ZM72.0512 46.6827C71.9682 46.6827 71.9422 46.7346 71.9526 46.745L72.0512 46.6827ZM72.0253 46.2778C71.9163 46.2778 71.7605 46.3141 71.8488 46.3764C71.9332 46.3651 72.0187 46.3651 72.1031 46.3764C72.1291 46.3505 72.1031 46.3401 72.0668 46.3297C72.0305 46.3193 72.1031 46.3608 72.0253 46.3764C71.9474 46.392 71.9889 46.3245 72.0253 46.3037C72.0561 46.3095 72.0878 46.3095 72.1187 46.3037L72.0253 46.2778ZM72.1862 46.5114H72.2381H72.2069C72.155 46.5114 72.1654 46.5114 72.2069 46.5114L72.1602 46.4802C72.0829 46.4966 72.0092 46.5265 71.9422 46.5685C71.9682 46.5425 72.0616 46.5062 71.9993 46.4854C71.937 46.4647 71.9474 46.4854 71.9526 46.5114L71.9266 46.475C72.0564 46.4075 72.1083 46.4439 72.1602 46.475H72.2329C72.2329 46.475 72.2173 46.5477 72.2018 46.5581L72.1862 46.5114ZM72.3679 46.1636H72.3419C72.3057 46.1674 72.2691 46.1674 72.2329 46.1636C72.2455 46.1562 72.2594 46.1515 72.2738 46.1496C72.2882 46.1477 72.3029 46.1487 72.3169 46.1526C72.331 46.1565 72.3441 46.1631 72.3555 46.1721C72.3669 46.1811 72.3764 46.1924 72.3834 46.2051L72.3679 46.1636ZM72.643 47.4198C72.6118 47.4198 72.508 47.4769 72.5444 47.5029H72.3938C72.4924 47.5029 72.4613 47.4146 72.4717 47.4094C72.617 47.4302 72.5651 47.4665 72.6638 47.4665L72.643 47.4198ZM73.1102 48.8525C72.9389 48.9304 73.0738 48.9667 73.0375 48.9979C73.0012 49.029 72.9233 48.9459 73.1258 48.8992L73.1102 48.8525ZM73.2348 48.9563C73.2348 48.9563 73.2607 48.9563 73.1725 49.0082C73.0842 49.0601 73.1725 49.0342 73.1725 49.055C73.1725 49.0757 73.2244 48.9927 73.2503 48.9563C73.2503 48.9563 73.2555 48.9927 73.2503 49.003L73.2348 48.9563ZM72.9493 48.1258L73.0738 48.0583V48.0168L72.9493 48.1258ZM73.0427 47.5807C72.9648 47.6067 72.9493 47.5807 72.9856 47.5392C72.887 47.5703 72.9077 47.6015 72.9077 47.6274C72.9077 47.6274 72.9804 47.6274 73.0115 47.5963H73.0479V47.5496L73.0427 47.5807ZM72.9493 46.7346C72.861 46.7346 72.8922 46.7346 72.9129 46.6827C72.9337 46.6308 72.9856 46.7502 72.9648 46.7813L72.9493 46.7346ZM73.2036 47.8039C73.1361 47.7676 73.0583 47.8766 73.0012 47.8558C72.8818 47.8558 73.105 47.7884 73.0686 47.7676C73.1673 47.7676 73.1258 47.7157 73.1984 47.6897C73.2711 47.6638 73.2451 47.8662 73.2192 47.8506L73.2036 47.8039ZM73.0219 46.7242C72.9077 46.6931 73.1154 46.6619 73.1309 46.6308C73.2244 46.6463 73.0375 46.6775 73.0219 46.7242Z" fill="white"/>
<path d="M71.9782 46.8481C71.9782 46.8481 71.9782 46.8481 71.9782 46.8176C71.9804 46.8224 71.9816 46.8276 71.9816 46.8329C71.9816 46.8381 71.9804 46.8433 71.9782 46.8481Z" fill="white"/>
<path d="M72.6172 49.5169L72.6114 49.5227L72.6172 49.5169Z" fill="white"/>
<path d="M74.8281 52.616C74.7502 52.725 74.7969 52.616 74.7814 52.616C74.7658 52.616 74.8696 52.5589 74.8281 52.616Z" fill="white"/>
<path d="M74.8855 52.3668C74.8667 52.3902 74.8574 52.4198 74.8595 52.4498C74.8595 52.4498 74.8491 52.4342 74.8855 52.3668Z" fill="white"/>
<path d="M74.9266 52.4914C74.8851 52.4914 74.8643 52.4914 74.8591 52.4498C74.8539 52.4083 74.9266 52.4343 74.9266 52.4914Z" fill="white"/>
<path d="M74.6154 52.0865C74.5635 52.154 74.6154 52.1644 74.6154 52.1644C74.496 52.1332 74.5116 52.2682 74.4701 52.3149C74.4597 52.2474 74.5427 52.1851 74.6154 52.0865Z" fill="white"/>
<path d="M74.5689 51.9619C74.5737 51.9642 74.5789 51.9653 74.5841 51.9653C74.5894 51.9653 74.5946 51.9642 74.5994 51.9619C74.5994 51.9619 74.5689 51.9721 74.5689 51.9619Z" fill="white"/>
<path d="M74.4856 51.9775C74.4856 51.9411 74.5479 51.8788 74.5946 51.8269C74.6413 51.775 74.5686 51.9256 74.5686 51.9619C74.5686 51.9982 74.5479 51.9152 74.4856 51.9775Z" fill="white"/>
<path d="M73.5668 51.3442C73.5668 51.3442 73.5668 51.3442 73.5252 51.3961V51.3493C73.5097 51.313 73.5512 51.339 73.5668 51.3442Z" fill="white"/>
<path d="M73.671 51.0431C73.671 51.0015 73.5568 51.0846 73.5724 51.0431L73.7178 50.9652L73.671 51.0431Z" fill="white"/>
<path d="M74.4338 50.6486L74.4236 50.6638V50.6486H74.4338Z" fill="white"/>
<path d="M73.4216 50.9341L73.2711 51.0483C73.3077 50.995 73.3605 50.955 73.4216 50.9341Z" fill="white"/>
<path d="M73.2292 50.8407L73.1877 50.8926L73.1981 50.7888L73.2292 50.8407Z" fill="white"/>
<path d="M73.2136 50.6122L73.172 50.6226L73.1928 50.5551L73.2136 50.6122Z" fill="white"/>
<path d="M72.4975 48.4891C72.648 48.4269 72.6117 48.5359 72.6584 48.5462C72.4663 48.593 72.6999 48.458 72.4975 48.4891Z" fill="white"/>
<path d="M72.0668 46.9163V47.0045C71.9682 46.9526 72.0409 46.9889 72.0668 46.9163Z" fill="white"/>
</svg>
